<svg width="139" height="41" viewBox="0 0 139 41" fill="none" xmlns="http://www.w3.org/2000/svg">
<path d="M0 5.46667C0 2.44751 2.45978 0 5.49407 0H133.506C136.54 0 139 2.44751 139 5.46667V35.5333C139 38.5525 136.54 41 133.506 41H5.49407C2.45978 41 0 38.5525 0 35.5333V5.46667Z" fill="white"/>
<path fill-rule="evenodd" clip-rule="evenodd" d="M0 35.5333V5.46667C0 2.44751 2.45978 0 5.49407 0H133.506C136.54 0 139 2.44751 139 5.46667V35.5333C139 38.5525 136.54 41 133.506 41H5.49407C2.45978 41 0 38.5525 0 35.5333ZM0.824111 35.5333V5.46667C0.824111 2.90038 2.91492 0.82 5.49407 0.82H133.506C136.085 0.82 138.176 2.90038 138.176 5.46667V35.5333C138.176 38.0996 136.085 40.18 133.506 40.18H5.49407C2.91492 40.18 0.824111 38.0996 0.824111 35.5333Z" fill="black" fill-opacity="0.1"/>
<path d="M31.4109 21.3344C31.3967 18.9314 32.4909 17.1203 34.7005 15.7849C33.4647 14.0232 31.595 13.0543 29.1304 12.8675C26.7968 12.6843 24.2437 14.2205 23.3088 14.2205C22.3209 14.2205 20.0616 12.931 18.284 12.931C14.6154 12.9873 10.7167 15.8413 10.7167 21.6479C10.7167 23.3639 11.0318 25.1361 11.6621 26.9613C12.5049 29.3643 15.5432 35.2519 18.7125 35.1568C20.3697 35.118 21.5418 33.987 23.6983 33.987C25.7911 33.987 26.8747 35.1568 28.7232 35.1568C31.9208 35.111 34.6687 29.7589 35.469 27.3489C31.1807 25.337 31.4109 21.4577 31.4109 21.3344ZM27.6892 10.5879C29.4845 8.46676 29.3216 6.53591 29.2685 5.8418C27.6821 5.93341 25.8478 6.91645 24.8032 8.12498C23.6523 9.42161 22.976 11.0248 23.1211 12.8323C24.835 12.9627 26.4002 12.0853 27.6892 10.5879Z" fill="#1F2933"/>
<path d="M50.7525 29.6701H48.9338L47.9375 26.5407H44.4746L43.5256 29.6701H41.7549L45.1858 19.0163H47.3048L50.7525 29.6701ZM47.6372 25.2278L46.7362 22.4459C46.6409 22.1617 46.4623 21.4924 46.1988 20.4389H46.1668C46.0619 20.892 45.8929 21.5613 45.6607 22.4459L44.7757 25.2278H47.6372Z" fill="#1F2933"/>
<path d="M59.5755 25.7346C59.5755 27.0412 59.2224 28.0739 58.516 28.832C57.8833 29.5069 57.0977 29.8439 56.1599 29.8439C55.1476 29.8439 54.4204 29.4804 53.9775 28.7535H53.9455V32.8004H52.2381V24.517C52.2381 23.6956 52.2165 22.8526 52.1748 21.988H53.6764L53.7717 23.2057H53.8038C54.3732 22.2883 55.2373 21.8303 56.3969 21.8303C57.3035 21.8303 58.0603 22.1882 58.6658 22.9047C59.2728 23.622 59.5755 24.565 59.5755 25.7346ZM57.8361 25.7971C57.8361 25.0494 57.6679 24.4329 57.3299 23.9478C56.9607 23.4419 56.465 23.1889 55.8435 23.1889C55.4223 23.1889 55.0395 23.3298 54.6975 23.6076C54.3547 23.8878 54.1305 24.2536 54.0256 24.7067C53.9727 24.9181 53.9463 25.091 53.9463 25.2271V26.508C53.9463 27.0668 54.1177 27.5383 54.4605 27.9234C54.8032 28.3084 55.2485 28.5006 55.7963 28.5006C56.4394 28.5006 56.9399 28.2524 57.2979 27.7576C57.6567 27.2621 57.8361 26.6089 57.8361 25.7971Z" fill="#1F2933"/>
<path d="M68.4149 25.7346C68.4149 27.0412 68.0617 28.0739 67.3546 28.832C66.7227 29.5069 65.937 29.8439 64.9992 29.8439C63.9869 29.8439 63.2598 29.4804 62.8177 28.7535H62.7857V32.8004H61.0782V24.517C61.0782 23.6956 61.0566 22.8526 61.015 21.988H62.5166L62.6119 23.2057H62.6439C63.2125 22.2883 64.0766 21.8303 65.2371 21.8303C66.1429 21.8303 66.8997 22.1882 67.5067 22.9047C68.1114 23.622 68.4149 24.565 68.4149 25.7346ZM66.6754 25.7971C66.6754 25.0494 66.5064 24.4329 66.1685 23.9478C65.7993 23.4419 65.3052 23.1889 64.6829 23.1889C64.2608 23.1889 63.8788 23.3298 63.5361 23.6076C63.1933 23.8878 62.9699 24.2536 62.8649 24.7067C62.8129 24.9181 62.7857 25.091 62.7857 25.2271V26.508C62.7857 27.0668 62.957 27.5383 63.2982 27.9234C63.641 28.3076 64.0863 28.5006 64.6356 28.5006C65.2787 28.5006 65.7793 28.2524 66.1373 27.7576C66.496 27.2621 66.6754 26.6089 66.6754 25.7971Z" fill="#1F2933"/>
<path d="M78.2976 26.6826C78.2976 27.5888 77.9829 28.3261 77.351 28.8953C76.6567 29.5173 75.69 29.828 74.4479 29.828C73.3011 29.828 72.3817 29.607 71.6857 29.1643L72.0814 27.7417C72.831 28.1948 73.6534 28.4222 74.5496 28.4222C75.1927 28.4222 75.6932 28.2765 76.0528 27.9867C76.4108 27.6969 76.5894 27.3078 76.5894 26.8227C76.5894 26.3904 76.442 26.0261 76.1465 25.7307C75.8526 25.4353 75.3617 25.1607 74.6761 24.9069C72.8101 24.2113 71.8779 23.1922 71.8779 21.852C71.8779 20.9762 72.2047 20.2581 72.859 19.6993C73.5109 19.1397 74.3806 18.8604 75.4682 18.8604C76.438 18.8604 77.2437 19.0293 77.8868 19.3663L77.4599 20.7577C76.8593 20.431 76.1801 20.2677 75.4201 20.2677C74.8195 20.2677 74.3502 20.4158 74.0138 20.7104C73.7295 20.9738 73.587 21.2948 73.587 21.6751C73.587 22.0962 73.7495 22.4444 74.0763 22.7182C74.3606 22.9712 74.8772 23.245 75.6268 23.5404C76.5437 23.9095 77.2173 24.341 77.6505 24.8357C78.0822 25.3288 78.2976 25.9461 78.2976 26.6826Z" fill="#1F2933"/>
<path d="M83.9426 23.2691H82.0606V26.9989C82.0606 27.9475 82.3921 28.4215 83.0568 28.4215C83.362 28.4215 83.615 28.395 83.8152 28.3422L83.8625 29.6383C83.5261 29.764 83.0833 29.8272 82.5347 29.8272C81.8603 29.8272 81.3334 29.6215 80.953 29.2108C80.5742 28.7993 80.3836 28.1093 80.3836 27.1398V23.2675H79.2624V21.9866H80.3836V20.58L82.0606 20.0741V21.9866H83.9426V23.2691Z" fill="#1F2933"/>
<path d="M92.4342 25.7659C92.4342 26.9467 92.0962 27.9162 91.4219 28.6743C90.7147 29.4548 89.7761 29.8439 88.6061 29.8439C87.4785 29.8439 86.5807 29.47 85.9112 28.7223C85.2417 27.9746 84.9069 27.0307 84.9069 25.8932C84.9069 24.7027 85.2513 23.7277 85.9424 22.9695C86.6319 22.2106 87.5625 21.8311 88.7326 21.8311C89.8602 21.8311 90.7676 22.205 91.4523 22.9535C92.1074 23.6796 92.4342 24.6171 92.4342 25.7659ZM90.6627 25.8211C90.6627 25.1126 90.5113 24.505 90.2046 23.9982C89.8466 23.385 89.3348 23.0792 88.6717 23.0792C87.9854 23.0792 87.464 23.3858 87.1061 23.9982C86.7993 24.5058 86.648 25.123 86.648 25.8531C86.648 26.5616 86.7993 27.1692 87.1061 27.6752C87.4753 28.2884 87.991 28.5942 88.6565 28.5942C89.3084 28.5942 89.8202 28.282 90.1894 27.6592C90.5041 27.1428 90.6627 26.5288 90.6627 25.8211Z" fill="#1F2933"/>
<path d="M97.984 23.4891C97.815 23.4579 97.6348 23.4419 97.4458 23.4419C96.8451 23.4419 96.3806 23.6684 96.0539 24.1223C95.7696 24.5226 95.627 25.0286 95.627 25.6394V29.6702H93.9204L93.9364 24.4073C93.9364 23.5219 93.9148 22.7158 93.8724 21.9888H95.3596L95.422 23.4587H95.4693C95.6495 22.9535 95.9338 22.5468 96.323 22.2418C96.7034 21.9672 97.1142 21.8303 97.5571 21.8303C97.7149 21.8303 97.8574 21.8415 97.984 21.8616V23.4891Z" fill="#1F2933"/>
<path d="M105.62 25.4657C105.62 25.7715 105.6 26.0293 105.557 26.2398H100.435C100.455 26.9988 100.702 27.5792 101.178 27.9795C101.61 28.3373 102.168 28.5166 102.854 28.5166C103.612 28.5166 104.304 28.3957 104.926 28.1532L105.194 29.338C104.466 29.655 103.608 29.8127 102.617 29.8127C101.426 29.8127 100.49 29.4621 99.8095 28.7616C99.1304 28.0611 98.79 27.1205 98.79 25.9404C98.79 24.782 99.1064 23.8174 99.7398 23.048C100.403 22.2267 101.299 21.816 102.427 21.816C103.534 21.816 104.373 22.2267 104.942 23.048C105.393 23.7005 105.62 24.5074 105.62 25.4657ZM103.992 25.023C104.003 24.5171 103.891 24.0799 103.66 23.7109C103.365 23.2362 102.91 22.9992 102.299 22.9992C101.741 22.9992 101.287 23.2306 100.94 23.6949C100.656 24.0639 100.487 24.5066 100.435 25.0222H103.992V25.023Z" fill="#1F2933"/>
<path d="M47.2897 11.852C47.2897 13.0036 46.9441 13.8705 46.2541 14.4526C45.615 14.9898 44.7066 15.2589 43.5301 15.2589C42.9468 15.2589 42.4476 15.2334 42.0297 15.1825V8.89035C42.5748 8.80229 43.1621 8.75729 43.7964 8.75729C44.9171 8.75729 45.7618 9.00091 46.3314 9.48816C46.9696 10.039 47.2897 10.8266 47.2897 11.852ZM46.2081 11.8804C46.2081 11.1339 46.0104 10.5615 45.615 10.1623C45.2195 9.76407 44.642 9.56448 43.8815 9.56448C43.5585 9.56448 43.2835 9.586 43.0554 9.63101V14.4145C43.1817 14.4341 43.4127 14.4429 43.7484 14.4429C44.5334 14.4429 45.1393 14.2247 45.566 13.7883C45.9928 13.3519 46.2081 12.716 46.2081 11.8804Z" fill="#1F2933"/>
<path d="M53.0244 12.858C53.0244 13.5673 52.8218 14.1485 52.4166 14.6045C51.9918 15.0731 51.429 15.307 50.7262 15.307C50.0489 15.307 49.5096 15.0829 49.1073 14.6328C48.706 14.1837 48.5054 13.6172 48.5054 12.9343C48.5054 12.2201 48.7119 11.634 49.1269 11.179C49.5419 10.7241 50.0998 10.4961 50.8026 10.4961C51.4799 10.4961 52.0241 10.7202 52.4362 11.1692C52.8277 11.6056 53.0244 12.1692 53.0244 12.858ZM51.9605 12.8913C51.9605 12.4656 51.8685 12.1007 51.6854 11.7964C51.4701 11.4285 51.1637 11.2446 50.7654 11.2446C50.3533 11.2446 50.0401 11.4285 49.8248 11.7964C49.6408 12.1007 49.5497 12.4715 49.5497 12.9098C49.5497 13.3355 49.6417 13.7004 49.8248 14.0047C50.047 14.3726 50.3562 14.5565 50.7556 14.5565C51.1471 14.5565 51.4544 14.3696 51.6757 13.9949C51.8655 13.6848 51.9605 13.3169 51.9605 12.8913Z" fill="#1F2933"/>
<path d="M60.714 10.59L59.2703 15.2022H58.3307L57.7326 13.1994C57.5809 12.6994 57.4576 12.2024 57.3617 11.7093H57.3431C57.254 12.2161 57.1307 12.7122 56.9721 13.1994L56.3369 15.2022H55.3865L54.0289 10.59H55.0831L55.6048 12.7826C55.731 13.3012 55.8348 13.7953 55.918 14.2629H55.9366C56.0129 13.8774 56.1392 13.3863 56.3173 12.7924L56.9721 10.5909H57.808L58.4354 12.7454C58.5871 13.2708 58.7104 13.7767 58.8054 14.2639H58.8338C58.9033 13.7894 59.008 13.2835 59.147 12.7454L59.7068 10.5909H60.714V10.59Z" fill="#1F2933"/>
<path d="M66.0314 15.2022H65.0056V12.5605C65.0056 11.7465 64.6963 11.3395 64.0758 11.3395C63.7714 11.3395 63.5257 11.451 63.3348 11.6751C63.1459 11.8991 63.05 12.1633 63.05 12.4656V15.2013H62.0242V11.9079C62.0242 11.5029 62.0115 11.0636 61.9871 10.588H62.8885L62.9365 11.3091H62.9649C63.0843 11.0851 63.2624 10.9002 63.4963 10.7524C63.7743 10.5802 64.0856 10.4931 64.4262 10.4931C64.8568 10.4931 65.2151 10.6321 65.4999 10.9109C65.8542 11.2524 66.0314 11.7621 66.0314 12.4392V15.2022Z" fill="#1F2933"/>
<path d="M68.8599 15.2022H67.8351V8.47363H68.8599V15.2022Z" fill="#1F2933"/>
<path d="M74.899 12.858C74.899 13.5673 74.6964 14.1485 74.2912 14.6045C73.8664 15.0731 73.3026 15.307 72.6008 15.307C71.9225 15.307 71.3832 15.0829 70.9819 14.6328C70.5806 14.1837 70.38 13.6172 70.38 12.9343C70.38 12.2201 70.5865 11.634 71.0015 11.179C71.4165 10.7241 71.9744 10.4961 72.6762 10.4961C73.3545 10.4961 73.8977 10.7202 74.3107 11.1692C74.7023 11.6056 74.899 12.1692 74.899 12.858ZM73.8341 12.8913C73.8341 12.4656 73.7421 12.1007 73.559 11.7964C73.3447 11.4285 73.0373 11.2446 72.64 11.2446C72.2269 11.2446 71.9137 11.4285 71.6994 11.7964C71.5153 12.1007 71.4243 12.4715 71.4243 12.9098C71.4243 13.3355 71.5163 13.7004 71.6994 14.0047C71.9215 14.3726 72.2308 14.5565 72.6302 14.5565C73.0217 14.5565 73.328 14.3696 73.5493 13.9949C73.7401 13.6848 73.8341 13.3169 73.8341 12.8913Z" fill="#1F2933"/>
<path d="M79.8634 15.2023H78.9424L78.8661 14.671H78.8377C78.5225 15.0946 78.0733 15.307 77.4899 15.307C77.0543 15.307 76.702 15.1671 76.4367 14.8892C76.196 14.6367 76.0756 14.3227 76.0756 13.9499C76.0756 13.3863 76.3105 12.9568 76.7832 12.6594C77.255 12.3619 77.9186 12.2162 78.7731 12.223V12.1369C78.7731 11.5293 78.454 11.226 77.8149 11.226C77.3597 11.226 76.9584 11.3405 76.6119 11.5675L76.4035 10.8943C76.8322 10.6292 77.3617 10.4961 77.9861 10.4961C79.192 10.4961 79.7969 11.1321 79.7969 12.404V14.1025C79.7969 14.5634 79.8194 14.9303 79.8634 15.2023ZM78.7985 13.6172V12.9059C77.6671 12.8864 77.1013 13.1965 77.1013 13.8354C77.1013 14.0761 77.1659 14.2561 77.2981 14.3765C77.4302 14.4968 77.5985 14.5565 77.7992 14.5565C78.0243 14.5565 78.2348 14.4851 78.4266 14.3432C78.6194 14.2004 78.7378 14.0194 78.7819 13.7973C78.7927 13.7474 78.7985 13.6867 78.7985 13.6172Z" fill="#1F2933"/>
<path d="M85.692 15.2022H84.7817L84.7338 14.4615H84.7054C84.4147 15.0251 83.9194 15.3069 83.2235 15.3069C82.6675 15.3069 82.2046 15.0887 81.8375 14.6523C81.4705 14.216 81.2875 13.6494 81.2875 12.9538C81.2875 12.2073 81.4862 11.6026 81.8855 11.1408C82.2721 10.7103 82.7458 10.495 83.3096 10.495C83.9292 10.495 84.3628 10.7034 84.6094 11.1212H84.629V8.47363H85.6558V13.9596C85.6558 14.4087 85.6675 14.8226 85.692 15.2022ZM84.629 13.2571V12.4881C84.629 12.355 84.6192 12.2474 84.6006 12.1652C84.5429 11.9186 84.4186 11.7112 84.2297 11.5439C84.0388 11.3766 83.8088 11.2924 83.5436 11.2924C83.1608 11.2924 82.8613 11.4441 82.6411 11.7484C82.4228 12.0527 82.3122 12.4411 82.3122 12.9156C82.3122 13.3716 82.417 13.7414 82.6274 14.0261C82.8496 14.3294 83.1491 14.4811 83.524 14.4811C83.8607 14.4811 84.1298 14.3549 84.3344 14.1015C84.5321 13.8676 84.629 13.5859 84.629 13.2571Z" fill="#1F2933"/>
<path d="M94.4653 12.858C94.4653 13.5673 94.2626 14.1485 93.8574 14.6045C93.4326 15.0731 92.8708 15.307 92.1671 15.307C91.4907 15.307 90.9514 15.0829 90.5482 14.6328C90.1469 14.1837 89.9462 13.6172 89.9462 12.9343C89.9462 12.2201 90.1527 11.634 90.5677 11.179C90.9827 10.7241 91.5407 10.4961 92.2444 10.4961C92.9207 10.4961 93.4659 10.7202 93.877 11.1692C94.2685 11.6056 94.4653 12.1692 94.4653 12.858ZM93.4023 12.8913C93.4023 12.4656 93.3103 12.1007 93.1273 11.7964C92.9109 11.4285 92.6056 11.2446 92.2062 11.2446C91.7951 11.2446 91.4819 11.4285 91.2656 11.7964C91.0816 12.1007 90.9906 12.4715 90.9906 12.9098C90.9906 13.3355 91.0826 13.7004 91.2656 14.0047C91.4878 14.3726 91.7971 14.5565 92.1964 14.5565C92.588 14.5565 92.8963 14.3696 93.1175 13.9949C93.3064 13.6848 93.4023 13.3169 93.4023 12.8913Z" fill="#1F2933"/>
<path d="M99.9804 15.2022H98.9556V12.5605C98.9556 11.7465 98.6463 11.3395 98.0248 11.3395C97.7204 11.3395 97.4747 11.451 97.2848 11.6751C97.095 11.8991 97 12.1633 97 12.4656V15.2013H95.9733V11.9079C95.9733 11.5029 95.9615 11.0636 95.9371 10.588H96.8375L96.8855 11.3091H96.9139C97.0343 11.0851 97.2124 10.9002 97.4454 10.7524C97.7243 10.5802 98.0346 10.4931 98.3762 10.4931C98.8059 10.4931 99.1641 10.6321 99.4489 10.9109C99.8042 11.2524 99.9804 11.7621 99.9804 12.4392V15.2022Z" fill="#1F2933"/>
<path d="M106.884 11.3581H105.754V13.5986C105.754 14.1681 105.955 14.4528 106.352 14.4528C106.536 14.4528 106.689 14.4371 106.809 14.4049L106.836 15.1827C106.633 15.259 106.367 15.2972 106.039 15.2972C105.634 15.2972 105.318 15.1739 105.09 14.9273C104.861 14.6808 104.748 14.2659 104.748 13.6838V11.3581H104.073V10.59H104.748V9.74466L105.753 9.44135V10.589H106.883V11.3581H106.884Z" fill="#1F2933"/>
<path d="M112.314 15.2022H111.287V12.58C111.287 11.7533 110.978 11.3394 110.359 11.3394C109.883 11.3394 109.558 11.5791 109.38 12.0585C109.349 12.1593 109.332 12.2826 109.332 12.4274V15.2012H108.307V8.47363H109.332V11.2533H109.351C109.674 10.7475 110.137 10.495 110.737 10.495C111.162 10.495 111.513 10.634 111.792 10.9128C112.14 11.2602 112.314 11.7768 112.314 12.4597V15.2022Z" fill="#1F2933"/>
<path d="M117.916 12.6779C117.916 12.8618 117.902 13.0164 117.878 13.1426H114.802C114.815 13.5986 114.962 13.9459 115.247 14.1866C115.507 14.4019 115.843 14.5095 116.254 14.5095C116.709 14.5095 117.124 14.4371 117.498 14.2913L117.659 15.0036C117.221 15.1934 116.706 15.2883 116.11 15.2883C115.396 15.2883 114.833 15.0779 114.426 14.6572C114.017 14.2365 113.814 13.672 113.814 12.9636C113.814 12.2679 114.003 11.6887 114.384 11.2269C114.781 10.7338 115.318 10.4872 115.997 10.4872C116.66 10.4872 117.164 10.7338 117.505 11.2269C117.78 11.6183 117.916 12.1026 117.916 12.6779ZM116.937 12.4127C116.945 12.1084 116.878 11.8462 116.739 11.6251C116.561 11.3404 116.289 11.1975 115.922 11.1975C115.588 11.1975 115.315 11.3365 115.106 11.6153C114.936 11.8374 114.835 12.1026 114.802 12.4127H116.937Z" fill="#1F2933"/>
</svg>
