<svg width="149" height="156" viewBox="0 0 149 156" fill="none" xmlns="http://www.w3.org/2000/svg">
<g clip-path="url(#clip0_6060_8470)" filter="url(#filter0_ddd_6060_8470)">
<path d="M38.7457 106.606L32.6739 110.066C31.3598 110.722 29.8982 109.49 30.3213 108.084L34.4087 94.4969L38.7457 74.6026C41.0501 65.4111 44.4753 56.5376 48.9443 48.1817L49.1545 47.7886L51.7845 43.6673C54.0692 40.0872 56.814 36.8226 59.9487 33.9573C63.716 30.5135 68.0033 27.6859 72.6521 25.5787L75.1765 24.4344C84.3826 20.418 92.6349 14.3145 101.933 10.5165C108.165 7.97088 114.693 7.32959 118.546 12.3248C127.22 23.5694 117.679 54.7083 109.872 73.7376C103.627 88.961 80.67 95.0735 69.9721 96.2268C63.0329 97.3801 48.8076 99.6866 47.4197 99.6866C46.8382 99.6866 46.0333 100.193 45.2093 100.887C43.0091 102.741 41.0496 104.883 38.7457 106.606Z" fill="white"/>
<path d="M124.653 23.9847C125.259 29.6257 125.042 35.3243 124.011 40.9035C122.269 49.5031 119.665 57.9066 116.239 65.9876C114.336 70.5368 111.871 74.8313 108.901 78.7719C103.25 86.0093 95.4564 91.2875 86.6263 93.8569C83.2118 94.8158 79.7335 95.5327 76.2175 96.0021C71.0131 96.8151 65.8088 97.5244 60.6044 98.3721C56.3888 99.0467 52.1906 99.8252 47.9924 100.552C46.8222 100.689 45.7019 101.103 44.7243 101.759C43.7468 102.415 42.9402 103.294 42.3716 104.323C41.6225 105.645 40.4582 106.684 39.0582 107.281C36.7611 108.472 34.5419 109.807 32.4139 111.277C30.6152 112.457 28.8781 113.727 27.2095 115.083C26.7496 115.441 26.2415 115.732 25.7002 115.948C25.479 116.012 25.2452 116.019 25.0204 115.969C24.7957 115.919 24.5872 115.813 24.4143 115.661C24.2414 115.51 24.1097 115.317 24.0312 115.101C23.9527 114.885 23.9301 114.653 23.9654 114.426C24.1127 113.865 24.3531 113.333 24.6767 112.852C25.2318 112.004 25.8563 111.225 26.4115 110.43C28.9462 107.192 30.6655 103.395 31.425 99.3581C32.0149 96.2442 32.622 93.1304 33.1598 89.9992C34.8887 80.0408 37.5071 70.2565 40.9838 60.7632C43.4966 53.5766 47.1261 46.8283 51.7395 40.7651C58.1454 31.85 67.3816 25.3522 77.9523 22.324C82.9334 20.6384 87.617 18.1806 91.8307 15.041C92.5767 14.5047 93.3227 13.9511 94.0339 13.311C97.9611 10.2803 102.699 8.47476 107.652 8.12122C109.985 7.88638 112.341 8.10373 114.591 8.76129C116.085 9.15746 117.477 9.86703 118.673 10.8426C119.87 11.8181 120.844 13.0372 121.53 14.4182C123.103 17.4093 124.159 20.6435 124.653 23.9847ZM34.4436 107.904C35.6406 107.333 36.7856 106.676 38.0173 106.174C39.5971 105.594 40.923 104.48 41.7644 103.026C42.8442 101.202 44.5717 99.8498 46.6045 99.237C48.813 98.4661 51.0666 97.8306 53.3529 97.3341C59.9278 96.0021 66.52 94.8084 73.0949 93.5801C76.7332 92.9852 80.314 92.0824 83.7986 90.8814C91.656 88.0978 98.4679 82.9775 103.315 76.2116C105.866 72.5897 108.051 68.7246 109.838 64.6729C113.147 57.1747 115.969 49.4721 118.286 41.6128C119.711 36.9797 120.47 32.1689 120.542 27.3235C120.663 24.1525 120.312 20.9811 119.501 17.9127C119.083 16.0183 118.052 14.3139 116.565 13.0631C115.079 11.8122 113.221 11.0847 111.278 10.9929C110.781 10.958 110.283 10.958 109.786 10.9929C104.789 10.9617 99.9177 12.5526 95.9075 15.5254C94.3627 16.8031 92.6882 17.9163 90.9113 18.8468C86.6844 20.9841 82.3069 22.8111 77.8136 24.3134C70.262 26.7459 63.6151 31.3797 58.7308 37.6167C54.3908 42.9409 50.9405 48.9285 48.5128 55.3485C45.6396 62.6549 43.2008 70.1239 41.2093 77.7166C39.7521 83.3043 38.8847 88.9958 37.9305 94.67C37.3541 99.2145 36.1817 103.664 34.4436 107.904V107.904Z" fill="#FF7800"/>
<path d="M124.653 23.9847C125.259 29.6257 125.042 35.3243 124.011 40.9035C122.269 49.5031 119.665 57.9066 116.239 65.9876C114.336 70.5368 111.871 74.8313 108.901 78.7719C103.25 86.0093 95.4564 91.2875 86.6263 93.8569C83.2118 94.8158 79.7335 95.5327 76.2175 96.0021C71.0131 96.8151 65.8088 97.5244 60.6044 98.3721C56.3888 99.0467 52.1906 99.8252 47.9924 100.552C46.8222 100.689 45.7019 101.103 44.7243 101.759C43.7468 102.415 42.9402 103.294 42.3716 104.323C41.6225 105.645 40.4582 106.684 39.0582 107.281C36.7611 108.472 34.5419 109.807 32.4139 111.277C30.6152 112.457 28.8781 113.727 27.2095 115.083C26.7496 115.441 26.2415 115.732 25.7002 115.948C25.479 116.012 25.2452 116.019 25.0204 115.969C24.7957 115.919 24.5872 115.813 24.4143 115.661C24.2414 115.51 24.1097 115.317 24.0312 115.101C23.9527 114.885 23.9301 114.653 23.9654 114.426C24.1127 113.865 24.3531 113.333 24.6767 112.852C25.2318 112.004 25.8563 111.225 26.4115 110.43C28.9462 107.192 30.6655 103.395 31.425 99.3581C32.0149 96.2442 32.622 93.1304 33.1598 89.9992C34.8887 80.0408 37.5071 70.2565 40.9838 60.7632C43.4966 53.5766 47.1261 46.8283 51.7395 40.7651C58.1454 31.85 67.3816 25.3522 77.9523 22.324C82.9334 20.6384 87.617 18.1806 91.8307 15.041C92.5767 14.5047 93.3227 13.9511 94.0339 13.311C97.9611 10.2803 102.699 8.47476 107.652 8.12122C109.985 7.88638 112.341 8.10373 114.591 8.76129C116.085 9.15746 117.477 9.86703 118.673 10.8426C119.87 11.8181 120.844 13.0372 121.53 14.4182C123.103 17.4093 124.159 20.6435 124.653 23.9847ZM34.4436 107.904C35.6406 107.333 36.7856 106.676 38.0173 106.174C39.5971 105.594 40.923 104.48 41.7644 103.026C42.8442 101.202 44.5717 99.8498 46.6045 99.237C48.813 98.4661 51.0666 97.8306 53.3529 97.3341C59.9278 96.0021 66.52 94.8084 73.0949 93.5801C76.7332 92.9852 80.314 92.0824 83.7986 90.8814C91.656 88.0978 98.4679 82.9775 103.315 76.2116C105.866 72.5897 108.051 68.7246 109.838 64.6729C113.147 57.1747 115.969 49.4721 118.286 41.6128C119.711 36.9797 120.47 32.1689 120.542 27.3235C120.663 24.1525 120.312 20.9811 119.501 17.9127C119.083 16.0183 118.052 14.3139 116.565 13.0631C115.079 11.8122 113.221 11.0847 111.278 10.9929C110.781 10.958 110.283 10.958 109.786 10.9929C104.789 10.9617 99.9177 12.5526 95.9075 15.5254C94.3627 16.8031 92.6882 17.9163 90.9113 18.8468C86.6844 20.9841 82.3069 22.8111 77.8136 24.3134C70.262 26.7459 63.6151 31.3797 58.7308 37.6167C54.3908 42.9409 50.9405 48.9285 48.5128 55.3485C45.6396 62.6549 43.2008 70.1239 41.2093 77.7166C39.7521 83.3043 38.8847 88.9958 37.9305 94.67C37.3541 99.2145 36.1817 103.664 34.4436 107.904V107.904Z" fill="white" fill-opacity="0.4"/>
<path d="M66.3464 43.827C66.6705 44.1476 66.9254 44.5309 67.0954 44.9533C67.2655 45.3758 67.3471 45.8284 67.3353 46.2835C67.6823 48.4286 68.0118 50.5737 68.3762 52.7015C68.3762 53.1686 68.6017 53.6357 68.6884 53.999C69.417 54.2585 69.6252 53.826 69.8681 53.5319C72.9391 49.7704 76.6361 46.5636 80.7973 44.0519C85.902 40.8511 90.7195 37.2163 95.1962 33.1879C97.5034 31.1465 100.019 29.3301 102.465 27.4445C102.725 27.1406 103.076 26.9279 103.466 26.8376C103.857 26.7474 104.266 26.7842 104.633 26.9428C104.339 27.3535 104.021 27.7463 103.679 28.1191C100.349 31.1811 97.0524 34.2431 93.6522 37.2359C90.7724 39.7616 87.8059 42.2181 84.8394 44.6573C82.3955 46.5534 80.1622 48.705 78.1778 51.0754C77.6573 51.7155 77.2236 52.4074 76.5644 53.307C77.0249 53.4189 77.4958 53.4826 77.9696 53.4973L91.4663 52.1653C92.2817 52.1653 93.0971 51.9404 93.843 51.8366C94.2594 52.494 93.9471 52.7881 93.5828 52.9783C92.9163 53.3147 92.2193 53.5869 91.501 53.7914C86.4679 55.0634 81.3048 55.7541 76.1134 55.85C75.7838 55.85 75.4541 55.85 74.9511 55.9365C72.5928 59.9245 70.839 64.2383 69.7467 68.738C71.9846 68.738 73.9796 68.8937 75.9746 68.9283L87.0079 69.0494C87.6699 69.0783 88.327 69.1769 88.9682 69.3435C89.0841 69.3911 89.1857 69.4677 89.2631 69.5659C89.3406 69.6641 89.3914 69.7806 89.4106 69.9041C89.4298 70.0275 89.4167 70.1539 89.3727 70.2708C89.3286 70.3878 89.255 70.4915 89.159 70.5718C88.7176 70.9399 88.2034 71.211 87.6498 71.3676C86.8366 71.563 86.0052 71.6732 85.169 71.6963C79.9136 72.149 74.6265 72.0911 69.3823 71.5233C69.1709 71.5445 68.9618 71.585 68.7578 71.6444C68.4802 72.2498 68.168 72.9072 67.8731 73.5992C63.7448 83.2861 56.1604 91.102 46.5871 95.5348C45.9189 95.8807 45.2151 96.1533 44.488 96.3479C44.1258 96.4671 43.7364 96.4774 43.3683 96.3775C43.0003 96.2776 42.6699 96.0718 42.4183 95.7859C42.1667 95.5 42.0051 95.1466 41.9536 94.7697C41.9021 94.3928 41.963 94.0091 42.1286 93.6665C42.4875 92.8258 43.0059 92.0621 43.6553 91.4175C44.6441 90.4142 45.7891 89.5492 46.8473 88.5978C49.0852 86.591 51.3751 84.6362 53.5263 82.543C56.7843 79.28 59.361 75.4052 61.1073 71.1427C61.8707 69.2917 62.5472 67.3887 63.3279 65.555C64.2473 63.4098 65.1668 61.2647 66.2077 59.1715C66.6752 58.2971 66.8166 57.2857 66.6067 56.3171C66.1036 53.8779 65.7046 51.3868 65.427 48.913C65.3144 47.67 65.3144 46.4193 65.427 45.1763C65.4444 44.7265 65.6699 44.5881 66.3464 43.827Z" fill="#FF7800"/>
<path d="M66.3464 43.827C66.6705 44.1476 66.9254 44.5309 67.0954 44.9533C67.2655 45.3758 67.3471 45.8284 67.3353 46.2835C67.6823 48.4286 68.0118 50.5737 68.3762 52.7015C68.3762 53.1686 68.6017 53.6357 68.6884 53.999C69.417 54.2585 69.6252 53.826 69.8681 53.5319C72.9391 49.7704 76.6361 46.5636 80.7973 44.0519C85.902 40.8511 90.7195 37.2163 95.1962 33.1879C97.5034 31.1465 100.019 29.3301 102.465 27.4445C102.725 27.1406 103.076 26.9279 103.466 26.8376C103.857 26.7474 104.266 26.7842 104.633 26.9428C104.339 27.3535 104.021 27.7463 103.679 28.1191C100.349 31.1811 97.0524 34.2431 93.6522 37.2359C90.7724 39.7616 87.8059 42.2181 84.8394 44.6573C82.3955 46.5534 80.1622 48.705 78.1778 51.0754C77.6573 51.7155 77.2236 52.4074 76.5644 53.307C77.0249 53.4189 77.4958 53.4826 77.9696 53.4973L91.4663 52.1653C92.2817 52.1653 93.0971 51.9404 93.843 51.8366C94.2594 52.494 93.9471 52.7881 93.5828 52.9783C92.9163 53.3147 92.2193 53.5869 91.501 53.7914C86.4679 55.0634 81.3048 55.7541 76.1134 55.85C75.7838 55.85 75.4541 55.85 74.9511 55.9365C72.5928 59.9245 70.839 64.2383 69.7467 68.738C71.9846 68.738 73.9796 68.8937 75.9746 68.9283L87.0079 69.0494C87.6699 69.0783 88.327 69.1769 88.9682 69.3435C89.0841 69.3911 89.1857 69.4677 89.2631 69.5659C89.3406 69.6641 89.3914 69.7806 89.4106 69.9041C89.4298 70.0275 89.4167 70.1539 89.3727 70.2708C89.3286 70.3878 89.255 70.4915 89.159 70.5718C88.7176 70.9399 88.2034 71.211 87.6498 71.3676C86.8366 71.563 86.0052 71.6732 85.169 71.6963C79.9136 72.149 74.6265 72.0911 69.3823 71.5233C69.1709 71.5445 68.9618 71.585 68.7578 71.6444C68.4802 72.2498 68.168 72.9072 67.8731 73.5992C63.7448 83.2861 56.1604 91.102 46.5871 95.5348C45.9189 95.8807 45.2151 96.1533 44.488 96.3479C44.1258 96.4671 43.7364 96.4774 43.3683 96.3775C43.0003 96.2776 42.6699 96.0718 42.4183 95.7859C42.1667 95.5 42.0051 95.1466 41.9536 94.7697C41.9021 94.3928 41.963 94.0091 42.1286 93.6665C42.4875 92.8258 43.0059 92.0621 43.6553 91.4175C44.6441 90.4142 45.7891 89.5492 46.8473 88.5978C49.0852 86.591 51.3751 84.6362 53.5263 82.543C56.7843 79.28 59.361 75.4052 61.1073 71.1427C61.8707 69.2917 62.5472 67.3887 63.3279 65.555C64.2473 63.4098 65.1668 61.2647 66.2077 59.1715C66.6752 58.2971 66.8166 57.2857 66.6067 56.3171C66.1036 53.8779 65.7046 51.3868 65.427 48.913C65.3144 47.67 65.3144 46.4193 65.427 45.1763C65.4444 44.7265 65.6699 44.5881 66.3464 43.827Z" fill="white" fill-opacity="0.4"/>
<path d="M107.583 40.1595C107.478 40.4363 107.478 40.8169 107.288 40.9899C106.921 41.3173 106.498 41.5753 106.039 41.7511C104.64 42.2593 103.216 42.6924 101.771 43.0485C101.037 43.1307 100.294 43.066 99.5851 42.8582C99.377 42.8582 99.1861 42.3739 99.1341 42.0798C99.082 41.7857 99.3076 41.63 99.4811 41.4743C99.6652 41.3146 99.8855 41.2018 100.123 41.1456L106.975 39.9865C107.132 39.9692 107.305 40.073 107.583 40.1595Z" fill="#FF7800"/>
<path d="M107.583 40.1595C107.478 40.4363 107.478 40.8169 107.288 40.9899C106.921 41.3173 106.498 41.5753 106.039 41.7511C104.64 42.2593 103.216 42.6924 101.771 43.0485C101.037 43.1307 100.294 43.066 99.5851 42.8582C99.377 42.8582 99.1861 42.3739 99.1341 42.0798C99.082 41.7857 99.3076 41.63 99.4811 41.4743C99.6652 41.3146 99.8855 41.2018 100.123 41.1456L106.975 39.9865C107.132 39.9692 107.305 40.073 107.583 40.1595Z" fill="white" fill-opacity="0.4"/>
<path d="M98.6309 64.6728C97.4859 64.6728 96.4797 64.8112 95.4735 64.6728C94.9928 64.5991 94.5357 64.4155 94.1378 64.1365C93.8255 63.9462 93.9122 63.2197 94.2418 63.064C94.4546 62.9379 94.6906 62.8556 94.9358 62.8218C96.8614 62.8218 98.7697 62.718 100.678 62.6834C100.757 62.6557 100.842 62.6557 100.921 62.6834C101.129 62.9083 101.476 63.1505 101.476 63.3754C101.449 63.5301 101.385 63.6758 101.288 63.7996C101.191 63.9233 101.065 64.0213 100.921 64.0846C100.458 64.2607 99.9737 64.377 99.481 64.4306C99.2033 64.5301 98.9193 64.611 98.6309 64.6728Z" fill="#FF7800"/>
<path d="M98.6309 64.6728C97.4859 64.6728 96.4797 64.8112 95.4735 64.6728C94.9928 64.5991 94.5357 64.4155 94.1378 64.1365C93.8255 63.9462 93.9122 63.2197 94.2418 63.064C94.4546 62.9379 94.6906 62.8556 94.9358 62.8218C96.8614 62.8218 98.7697 62.718 100.678 62.6834C100.757 62.6557 100.842 62.6557 100.921 62.6834C101.129 62.9083 101.476 63.1505 101.476 63.3754C101.449 63.5301 101.385 63.6758 101.288 63.7996C101.191 63.9233 101.065 64.0213 100.921 64.0846C100.458 64.2607 99.9737 64.377 99.481 64.4306C99.2033 64.5301 98.9193 64.611 98.6309 64.6728Z" fill="white" fill-opacity="0.4"/>
<path d="M55.261 66.5066C54.7837 66.3244 54.3386 66.0674 53.9425 65.7454C52.8076 64.4237 51.9626 62.8798 51.4618 61.213C51.4102 61.0615 51.4102 60.8973 51.4618 60.7459C51.5658 60.5383 51.7046 60.2788 51.8955 60.2096C52.0036 60.1799 52.117 60.1738 52.2278 60.1917C52.3385 60.2096 52.4441 60.2511 52.5373 60.3134C52.7247 60.4741 52.873 60.6753 52.971 60.9016C53.717 62.4585 54.463 64.0328 55.1742 65.607C55.2425 65.9018 55.2716 66.2042 55.261 66.5066Z" fill="#FF7800"/>
<path d="M55.261 66.5066C54.7837 66.3244 54.3386 66.0674 53.9425 65.7454C52.8076 64.4237 51.9626 62.8798 51.4618 61.213C51.4102 61.0615 51.4102 60.8973 51.4618 60.7459C51.5658 60.5383 51.7046 60.2788 51.8955 60.2096C52.0036 60.1799 52.117 60.1738 52.2278 60.1917C52.3385 60.2096 52.4441 60.2511 52.5373 60.3134C52.7247 60.4741 52.873 60.6753 52.971 60.9016C53.717 62.4585 54.463 64.0328 55.1742 65.607C55.2425 65.9018 55.2716 66.2042 55.261 66.5066Z" fill="white" fill-opacity="0.4"/>
</g>
<defs>
<filter id="filter0_ddd_6060_8470" x="0" y="0" width="149" height="156" filterUnits="userSpaceOnUse" color-interpolation-filters="sRGB">
<feFlood flood-opacity="0" result="BackgroundImageFix"/>
<feColorMatrix in="SourceAlpha" type="matrix" values="0 0 0 0 0 0 0 0 0 0 0 0 0 0 0 0 0 0 127 0" result="hardAlpha"/>
<feOffset/>
<feGaussianBlur stdDeviation="0.5"/>
<feColorMatrix type="matrix" values="0 0 0 0 0 0 0 0 0 0 0 0 0 0 0 0 0 0 0.04 0"/>
<feBlend mode="normal" in2="BackgroundImageFix" result="effect1_dropShadow_6060_8470"/>
<feColorMatrix in="SourceAlpha" type="matrix" values="0 0 0 0 0 0 0 0 0 0 0 0 0 0 0 0 0 0 127 0" result="hardAlpha"/>
<feOffset dy="2"/>
<feGaussianBlur stdDeviation="3"/>
<feColorMatrix type="matrix" values="0 0 0 0 0 0 0 0 0 0 0 0 0 0 0 0 0 0 0.04 0"/>
<feBlend mode="normal" in2="effect1_dropShadow_6060_8470" result="effect2_dropShadow_6060_8470"/>
<feColorMatrix in="SourceAlpha" type="matrix" values="0 0 0 0 0 0 0 0 0 0 0 0 0 0 0 0 0 0 127 0" result="hardAlpha"/>
<feOffset dy="16"/>
<feGaussianBlur stdDeviation="12"/>
<feColorMatrix type="matrix" values="0 0 0 0 0 0 0 0 0 0 0 0 0 0 0 0 0 0 0.06 0"/>
<feBlend mode="normal" in2="effect2_dropShadow_6060_8470" result="effect3_dropShadow_6060_8470"/>
<feBlend mode="normal" in="SourceGraphic" in2="effect3_dropShadow_6060_8470" result="shape"/>
</filter>
<clipPath id="clip0_6060_8470">
<rect width="101" height="108" fill="white" transform="translate(24 8)"/>
</clipPath>
</defs>
</svg>
