<svg width="24" height="22" viewBox="0 0 24 22" fill="none" xmlns="http://www.w3.org/2000/svg">
<path d="M18.978 10.3436V13.6244C20.2381 13.0943 21.3468 12.2616 22.2051 11.2006C23.0633 10.1396 23.6443 8.88332 23.8963 7.54406C24.1713 6.01534 23.8945 4.43898 23.1149 3.09401C22.3354 1.74903 21.1033 0.722142 19.6367 0.195068C21.6919 1.98857 22.8951 3.6421 22.0432 6.66918C21.8019 7.45329 21.4067 8.18187 20.8805 8.81264C20.3544 9.44341 19.7077 9.9638 18.978 10.3436Z" fill="#FF7800"/>
<path d="M4.36429 0.204102C2.8967 0.729693 1.66357 1.75629 0.883763 3.10168C0.103955 4.44706 -0.172065 6.02419 0.104721 7.55306C0.357411 8.89224 0.939833 10.148 1.79977 11.2077C2.6597 12.2674 3.77024 13.0979 5.03178 13.6247V10.3439C4.2999 9.96578 3.65109 9.44603 3.12328 8.8151C2.59547 8.18417 2.19925 7.45475 1.95785 6.66945C1.07958 3.64238 2.30915 1.98885 4.36429 0.204102Z" fill="#FF7800"/>
<path d="M5.9012 10.2652C5.84971 10.3165 5.80272 10.3721 5.7607 10.4314C5.72195 10.4948 5.70073 10.5672 5.69922 10.6414V16.6081C5.70327 16.7728 5.73594 16.9356 5.79582 17.0892C5.84457 17.2444 5.91555 17.3917 6.00659 17.5267C6.00659 17.5267 6.72679 18.4715 7.56114 19.4514C7.96125 19.9311 8.38634 20.3896 8.83463 20.825C9.01304 21.0069 9.20375 21.1765 9.40548 21.3324C9.55755 21.4525 9.73011 21.5444 9.91488 21.6036C11.2954 21.8719 12.7149 21.8719 14.0954 21.6036C14.2802 21.5444 14.4528 21.4525 14.6048 21.3324C15.3923 20.6528 16.1128 19.8999 16.7566 19.084C17.4504 18.2528 17.995 17.5267 18.0037 17.5267C18.0948 17.3917 18.1658 17.2444 18.2145 17.0892C18.2684 16.9313 18.298 16.7661 18.3023 16.5993V10.6327C18.3019 10.5611 18.2806 10.4911 18.2409 10.4314C18.1625 10.3108 18.061 10.2068 17.9422 10.1252C17.2265 9.65212 16.4372 9.30033 15.6061 9.08411C13.0333 8.29206 10.2699 8.36895 7.74559 9.30283C7.25173 9.47305 6.77531 9.68985 6.32281 9.95026C6.17005 10.0379 6.02847 10.1437 5.9012 10.2652ZM7.55235 18.839L6.67408 17.7541C6.44573 17.4742 6.31402 17.2905 6.31402 17.2905C6.17696 17.0885 6.10077 16.8517 6.09445 16.6081V14.5696C6.09445 14.4296 6.24374 14.3859 6.35792 14.4559L6.516 14.5959L9.65142 17.5267C9.85197 17.7271 9.96819 17.9962 9.97637 18.2791V20.5275C9.97637 20.93 9.88857 21.0962 9.73048 21.0787L9.63383 21.0174C8.87149 20.3567 8.17178 19.6275 7.54356 18.839H7.55235ZM17.8281 16.9668C17.7932 17.0825 17.7399 17.1918 17.67 17.2905L17.547 17.4479C17.2748 17.8154 16.5634 18.7165 15.7905 19.5564C15.4216 19.9763 15.044 20.3788 14.719 20.685C14.5752 20.8175 14.4226 20.9402 14.2623 21.0524C14.1042 21.0524 14.0164 20.9125 14.0164 20.5275V18.2528C14.0319 17.9699 14.1506 17.7024 14.3501 17.5004L17.6349 14.4209C17.6597 14.4042 17.6884 14.3942 17.7182 14.3917C17.748 14.3892 17.778 14.3943 17.8052 14.4066C17.8325 14.4188 17.8562 14.4378 17.874 14.4618C17.8918 14.4857 17.9033 14.5138 17.9071 14.5434V16.5731C17.9019 16.6983 17.8783 16.8221 17.8369 16.9405L17.8281 16.9668ZM12.0052 8.90916C13.412 8.92935 14.8062 9.17755 16.133 9.64405C16.4965 9.7732 16.8515 9.92514 17.1957 10.099C17.5646 10.3352 17.7227 10.6152 17.4153 10.9739L12.3301 15.7157C12.2422 15.7976 12.1255 15.8416 12.0052 15.8382C11.8822 15.842 11.7625 15.7981 11.6714 15.7157L6.57748 10.9301C6.27009 10.5977 6.4194 10.3265 6.79705 10.0552L7.0342 9.9415C8.59497 9.25181 10.2803 8.88567 11.9876 8.8654" fill="#FF7800"/>
</svg>
