<svg width="64" height="64" viewBox="0 0 64 64" fill="none" xmlns="http://www.w3.org/2000/svg">
<rect x="4" y="4" width="56" height="56" rx="28" fill="#FF7800"/>
<path d="M27.752 25.439L38.26 31.569C38.3353 31.6131 38.3978 31.6761 38.4412 31.7518C38.4846 31.8275 38.5074 31.9132 38.5074 32.0005C38.5074 32.0878 38.4846 32.1735 38.4412 32.2492C38.3978 32.3249 38.3353 32.3879 38.26 32.432L27.752 38.562C27.6759 38.6064 27.5893 38.6299 27.5012 38.6301C27.4131 38.6304 27.3264 38.6073 27.2501 38.5632C27.1737 38.5191 27.1104 38.4557 27.0665 38.3793C27.0226 38.3028 26.9996 38.2161 27 38.128V25.871C27 25.783 27.0232 25.6966 27.0672 25.6204C27.1113 25.5443 27.1747 25.4811 27.2509 25.4373C27.3272 25.3935 27.4137 25.3706 27.5017 25.3709C27.5897 25.3712 27.676 25.3947 27.752 25.439Z" fill="white" fill-opacity="0.95"/>
<rect x="0.5" y="0.5" width="63" height="63" rx="31.5" stroke="url(#paint0_linear_6060_8668)"/>
<defs>
<linearGradient id="paint0_linear_6060_8668" x1="-1.60653e-08" y1="30.5" x2="64" y2="32" gradientUnits="userSpaceOnUse">
<stop stop-color="#FF7800"/>
<stop offset="1" stop-color="white"/>
</linearGradient>
</defs>
</svg>
