<svg width="139" height="41" viewBox="0 0 139 41" fill="none" xmlns="http://www.w3.org/2000/svg">
<path d="M0 5.46667C0 2.44751 2.45978 0 5.49407 0H133.506C136.54 0 139 2.44751 139 5.46667V35.5333C139 38.5525 136.54 41 133.506 41H5.49407C2.45978 41 0 38.5525 0 35.5333V5.46667Z" fill="white"/>
<path fill-rule="evenodd" clip-rule="evenodd" d="M0 35.5333V5.46667C0 2.44751 2.45978 0 5.49407 0H133.506C136.54 0 139 2.44751 139 5.46667V35.5333C139 38.5525 136.54 41 133.506 41H5.49407C2.45978 41 0 38.5525 0 35.5333ZM0.824111 35.5333V5.46667C0.824111 2.90038 2.91492 0.82 5.49407 0.82H133.506C136.085 0.82 138.176 2.90038 138.176 5.46667V35.5333C138.176 38.0996 136.085 40.18 133.506 40.18H5.49407C2.91492 40.18 0.824111 38.0996 0.824111 35.5333Z" fill="black" fill-opacity="0.1"/>
<path d="M70.4299 22.2735C67.9563 22.2735 65.9126 24.1956 65.9126 26.8311C65.9126 29.445 67.9349 31.3887 70.4302 31.3887C72.9252 31.3887 74.9473 29.4666 74.9473 26.8311C74.9473 24.1956 72.9252 22.2735 70.4299 22.2735ZM70.4299 29.5751C69.0744 29.5751 67.892 28.4299 67.892 26.8108C67.892 25.1691 69.0754 24.0464 70.4299 24.0464C71.7845 24.0464 72.9678 25.1691 72.9678 26.8108C72.9678 28.4299 71.7845 29.5751 70.4299 29.5751ZM60.5993 22.2735C58.104 22.2735 56.0817 24.1956 56.0817 26.8311C56.0817 29.445 58.104 31.3887 60.5993 31.3887C63.0944 31.3887 65.1167 29.4666 65.1167 26.8311C65.1167 24.1956 63.0944 22.2735 60.5991 22.2735H60.5993ZM60.5993 29.5751C59.2436 29.5751 58.0614 28.4299 58.0614 26.8108C58.0614 25.1691 59.2448 24.0464 60.5993 24.0464C61.9548 24.0464 63.1372 25.1691 63.1372 26.8108C63.1372 28.4299 61.9751 29.5751 60.5993 29.5751ZM48.9186 23.6777V25.5998H53.4786C53.349 26.6797 52.9844 27.4789 52.4462 28.0193C51.7796 28.6887 50.7471 29.4235 48.9186 29.4235C46.1001 29.4235 43.9283 27.1341 43.9283 24.3042C43.9283 21.4743 46.1013 19.1416 48.9186 19.1416C50.4453 19.1416 51.5432 19.7466 52.3605 20.5245L53.715 19.1631C52.5746 18.0619 51.0478 17.2197 48.9186 17.2197C45.0675 17.2197 41.8407 20.3944 41.8407 24.2612C41.8407 28.1281 45.0675 31.3028 48.9186 31.3028C51.005 31.3028 52.5543 30.612 53.8017 29.3152C55.0708 28.0409 55.458 26.2476 55.458 24.8006C55.458 24.3473 55.4154 23.9367 55.3501 23.5909L48.9186 23.6777ZM96.7168 25.1679C96.3507 24.1526 95.1898 22.2735 92.8657 22.2735C90.5419 22.2735 88.6277 24.1098 88.6277 26.8311C88.6277 29.3795 90.5419 31.3887 93.081 31.3887C95.146 31.3887 96.3293 30.1144 96.8237 29.3795L95.297 28.3429C94.7802 29.0992 94.0922 29.5955 93.081 29.5955C92.0699 29.5955 91.3604 29.1421 90.908 28.2128L96.9094 25.6859L96.7168 25.1679ZM90.6072 26.7022C90.5646 24.952 91.9629 24.0452 92.9515 24.0452C93.7476 24.0452 94.393 24.4341 94.6292 25.0175L90.6072 26.7022ZM85.724 31.0867H87.7035V17.7375H85.724V31.0867ZM82.4981 23.2889H82.4338C81.9823 22.7484 81.1436 22.2735 80.0672 22.2735C77.8084 22.2735 75.7648 24.2827 75.7648 26.8311C75.7648 29.3795 77.8298 31.3674 80.0672 31.3674C81.1424 31.3674 81.9814 30.8922 82.4338 30.3303H82.4981V30.9783C82.4981 32.7285 81.5725 33.6566 80.0886 33.6566C78.8838 33.6566 78.1306 32.7713 77.8298 32.0365L76.1094 32.7713C76.6036 33.9811 77.9165 35.4714 80.0886 35.4714C82.4114 35.4714 84.3695 34.0887 84.3695 30.7409V22.554H82.4981V23.2889ZM80.2393 29.5751C78.8838 29.5751 77.7443 28.4299 77.7443 26.8323C77.7443 25.2346 78.8848 24.0677 80.2393 24.0677C81.5736 24.0677 82.6489 25.2346 82.6489 26.8323C82.6479 28.4084 81.5725 29.5751 80.2393 29.5751ZM105.945 17.7377H101.213V31.0867H103.192V26.0317H105.945C108.14 26.0317 110.29 24.4329 110.29 21.8847C110.29 19.3363 108.14 17.7375 105.945 17.7375V17.7377ZM106.009 24.1753H103.212V19.595H106.009C107.472 19.595 108.332 20.8263 108.332 21.8845C108.312 22.9213 107.473 24.1753 106.009 24.1753ZM118.185 22.252C116.766 22.252 115.281 22.8785 114.679 24.3042L116.422 25.039C116.809 24.3042 117.497 24.0667 118.229 24.0667C119.262 24.0667 120.294 24.693 120.316 25.7942V25.9243C119.95 25.7084 119.198 25.4054 118.251 25.4054C116.358 25.4054 114.443 26.4638 114.443 28.4084C114.443 30.2014 115.992 31.3459 117.713 31.3459C119.047 31.3459 119.777 30.7409 120.229 30.0285H120.293V31.0654H122.207V25.9456C122.186 23.5916 120.444 22.2518 118.185 22.2518V22.252ZM117.949 29.5536C117.304 29.5536 116.4 29.2291 116.4 28.4309C116.4 27.394 117.518 27.0052 118.486 27.0052C119.346 27.0052 119.755 27.1996 120.293 27.4586C120.143 28.6898 119.089 29.5536 117.949 29.5536ZM129.113 22.5552L126.854 28.3223H126.79L124.446 22.555H122.317L125.844 30.6333L123.843 35.148H125.908L131.307 22.555H129.113L129.113 22.5552ZM111.388 31.0867H113.367V17.7375H111.388V31.0867Z" fill="black"/>
<path d="M45.7303 13.5327C45.1325 13.5327 44.5817 13.3899 44.0777 13.1042C43.5737 12.8184 43.1722 12.4277 42.8734 11.9321C42.5803 11.4306 42.4338 10.8738 42.4338 10.2615C42.4338 9.64922 42.5803 9.09526 42.8734 8.59962C43.1722 8.09815 43.5737 7.70455 44.0777 7.41882C44.5817 7.1331 45.1325 6.99023 45.7303 6.99023C46.205 6.99023 46.6474 7.07479 47.0576 7.24389C47.4679 7.41299 47.8107 7.64915 48.0861 7.95237L47.4005 8.63461C47.1954 8.40719 46.9492 8.23226 46.6621 8.10981C46.3808 7.98735 46.0672 7.92613 45.7215 7.92613C45.3171 7.92613 44.9391 8.02234 44.5875 8.21477C44.2359 8.40719 43.9546 8.68126 43.7436 9.03695C43.5327 9.39265 43.4272 9.80083 43.4272 10.2615C43.4272 10.7221 43.5327 11.1303 43.7436 11.486C43.9546 11.8417 44.2359 12.1158 44.5875 12.3082C44.9391 12.5006 45.3201 12.5968 45.7303 12.5968C46.1053 12.5968 46.4189 12.5414 46.6709 12.4307C46.9229 12.3199 47.1485 12.1712 47.3477 11.9846C47.4767 11.8563 47.5851 11.6959 47.673 11.5035C47.7667 11.3111 47.8283 11.1012 47.8576 10.8738H45.7215V9.99909H48.7894C48.8187 10.1624 48.8333 10.3315 48.8333 10.5064C48.8333 10.9029 48.7718 11.2848 48.6487 11.6522C48.5257 12.0137 48.3293 12.3286 48.0598 12.5968C47.4679 13.2208 46.6914 13.5327 45.7303 13.5327Z" fill="black"/>
<path d="M49.7501 7.13018H53.574V8.06607H50.7346V9.79791H53.2927V10.7251H50.7346V12.4569H53.574V13.3928H49.7501V7.13018Z" fill="black"/>
<path d="M55.8526 8.06607H54.0945V7.13018H58.5953V8.06607H56.8372V13.3928H55.8526V8.06607Z" fill="black"/>
<path d="M61.1692 7.13018H62.1537V13.3928H61.1692V7.13018Z" fill="black"/>
<path d="M64.6449 8.06607H62.8867V7.13018H67.3875V8.06607H65.6294V13.3928H64.6449V8.06607Z" fill="black"/>
<path d="M72.7345 13.5327C72.1251 13.5327 71.5712 13.3899 71.0731 13.1042C70.575 12.8126 70.1824 12.4161 69.8952 11.9146C69.6139 11.4131 69.4732 10.8621 69.4732 10.2615C69.4732 9.66088 69.6139 9.11276 69.8952 8.61711C70.1824 8.11564 70.575 7.71912 71.0731 7.42757C71.5712 7.13601 72.1251 6.99023 72.7345 6.99023C73.344 6.99023 73.8949 7.13601 74.3871 7.42757C74.8853 7.71912 75.2779 8.11564 75.5651 8.61711C75.8522 9.11276 75.9958 9.66088 75.9958 10.2615C75.9958 10.8621 75.8522 11.4131 75.5651 11.9146C75.2838 12.4161 74.8941 12.8126 74.3959 13.1042C73.8978 13.3899 73.344 13.5327 72.7345 13.5327ZM72.7345 12.5968C73.1506 12.5968 73.5315 12.4977 73.8773 12.2995C74.2231 12.1012 74.4956 11.8271 74.6948 11.4773C74.8941 11.1216 74.9937 10.7163 74.9937 10.2615C74.9937 9.80666 74.8941 9.40431 74.6948 9.05445C74.4956 8.69875 74.2231 8.42177 73.8773 8.22351C73.5315 8.02526 73.1506 7.92613 72.7345 7.92613C72.3184 7.92613 71.9375 8.02526 71.5918 8.22351C71.246 8.42177 70.9706 8.69875 70.7655 9.05445C70.5662 9.40431 70.4666 9.80666 70.4666 10.2615C70.4666 10.7163 70.5662 11.1216 70.7655 11.4773C70.9706 11.8271 71.246 12.1012 71.5918 12.2995C71.9375 12.4977 72.3184 12.5968 72.7345 12.5968Z" fill="black"/>
<path d="M76.9011 7.13018H78.0702L80.8832 11.6872H80.9359L80.8832 10.4802V7.13018H81.8589V13.3928H80.8305L77.8768 8.59962H77.8241L77.8768 9.80666V13.3928H76.9011V7.13018Z" fill="black"/>
<path d="M29.3087 24.895C32.5999 23.0803 35.0952 21.6976 35.3102 21.5902C35.998 21.2227 36.7086 20.2504 35.3102 19.4952C34.8587 19.2578 32.4277 17.9179 29.3087 16.1904L24.9852 20.5749L29.3085 24.895H29.3087Z" fill="#FFD900"/>
<path d="M24.9851 20.5752L11.218 34.5079C11.5409 34.5509 11.9058 34.4648 12.3361 34.2274C13.2392 33.7312 22.8118 28.4816 29.3089 24.8963L24.9851 20.5752Z" fill="#F43249"/>
<path d="M24.9851 20.5757L29.3084 16.2125C29.3084 16.2125 13.3044 7.44243 12.3358 6.92494C11.9715 6.70735 11.5626 6.64302 11.1968 6.70735L24.9851 20.5755V20.5757Z" fill="#00EE76"/>
<path d="M24.9851 20.5761L11.1965 6.70801C10.6369 6.83785 10.1639 7.33429 10.1639 8.34917V32.867C10.1639 33.7964 10.53 34.4658 11.2177 34.5301L24.9849 20.5759L24.9851 20.5761Z" fill="#00D3FF"/>
</svg>
