<svg width="132" height="119" viewBox="0 0 132 119" fill="none" xmlns="http://www.w3.org/2000/svg">
<g clip-path="url(#clip0_6060_8476)" filter="url(#filter0_ddd_6060_8476)">
<path d="M96.5576 56.8774C93.4909 60.7107 81.2242 70.6135 75.4742 75.0858L62.0574 75.0858L50.5574 72.2108L36.1823 63.5857L29.4739 54.0023L26.5989 38.6689L30.4322 31.0022L36.1823 31.0022L55.3491 34.8356L92.7243 34.8356C96.5576 35.4744 104.608 37.1356 106.141 38.6689C108.058 40.5856 100.391 52.0857 96.5576 56.8774Z" fill="white"/>
<path d="M102.92 51.7129C99.238 57.8387 94.73 63.428 89.5228 68.3234C88.3569 69.4678 87.1282 70.5465 85.8425 71.5545C76.3425 79.0389 65.6237 79.9326 54.534 76.5621C45.2716 73.7568 37.0898 68.1835 31.0882 60.5911C28.0214 56.8766 25.9743 52.4277 25.148 47.6822C24.3217 42.9366 24.7447 38.0577 26.3756 33.5252C26.7102 32.2748 27.4665 31.1784 28.5165 30.4215C29.5665 29.6646 30.8457 29.2936 32.1378 29.3714C33.3559 29.3601 34.5738 29.4131 35.7863 29.5303C42.7092 30.0746 49.6295 30.6618 56.5453 31.1799C68.4184 32.133 80.3396 32.6195 92.3087 32.6396C95.6758 32.5349 99.0429 32.8438 102.335 33.5591C103.225 33.7655 104.09 34.0649 104.917 34.4526C105.526 34.8084 106.045 35.2976 106.437 35.8834C106.948 36.6475 107.346 37.4812 107.62 38.3587C107.819 39.0333 107.884 39.7402 107.812 40.4398C107.421 43.3819 106.408 46.2071 104.842 48.7283C104.25 49.7147 103.583 50.6793 102.92 51.7129ZM36.7887 34.0042C36.6192 34.681 36.3739 35.336 36.2638 36.025C35.9967 38.1572 36.0875 40.3191 36.5325 42.4213C37.4025 46.0978 38.9494 49.5802 41.0941 52.6905C43.2972 56.2681 46.4674 59.1495 50.2385 61.0021C53.952 62.9646 58.1403 63.8495 62.3303 63.5569C65.2604 63.1518 68.1581 62.5394 71.0016 61.7245C74.7989 60.8465 78.2785 58.9331 81.054 56.1968C86.04 51.4822 90.1259 45.899 93.1116 39.7206C89.1462 38.7812 85.0761 38.3579 81.0022 38.4614C80.7621 38.4555 80.5066 38.7064 80.2039 38.8857C80.8805 39.6305 81.5954 40.3088 82.1226 40.9673C83.1693 42.0998 83.8338 43.5324 84.0224 45.063C84.211 46.5935 83.914 48.1446 83.1735 49.4972C82.9861 49.9498 82.6923 50.3505 82.3171 50.6654C81.9419 50.9803 81.4963 51.2001 81.0181 51.3062C80.5399 51.4123 80.0432 51.4016 79.57 51.2749C79.0968 51.1483 78.6611 50.9095 78.2999 50.5787C77.6106 49.9747 76.9525 49.3362 76.328 48.6656C75.9871 48.336 75.6105 48.03 74.8502 47.3919C74.9118 48.5119 74.9824 49.1945 75.0199 49.858C75.0921 51.2907 74.7874 52.7173 74.1361 53.9954C74.0187 54.2521 73.8461 54.4797 73.6305 54.6619C73.415 54.8441 73.1618 54.9765 72.8892 55.0495C72.6165 55.1226 72.3311 55.1345 72.0534 55.0845C71.7756 55.0344 71.5122 54.9237 71.2822 54.7601C70.568 54.3608 69.959 53.7973 69.5056 53.1161C69.0523 52.4349 68.7675 51.6555 68.675 50.8425C68.64 50.7115 68.8571 50.5271 69.0584 50.1785L72.014 52.7259C72.2732 52.3492 72.4746 51.9358 72.6114 51.4995C72.6657 50.5933 72.6428 49.6842 72.5427 48.7819C72.4536 47.9779 72.2003 47.1899 72.1068 46.317C71.9585 45.9259 71.9525 45.4951 72.0897 45.1C72.227 44.7049 72.4988 44.3707 72.8577 44.1558C73.2165 43.9409 73.6395 43.8591 74.0526 43.9246C74.4657 43.9901 74.8426 44.1987 75.1174 44.5141C76.0226 45.1695 76.8346 45.9481 77.6753 46.677C78.3378 47.4469 79.1635 48.0596 80.0922 48.4707C80.3388 48.2478 80.5535 47.992 80.7304 47.7105C81.1472 46.8282 81.2848 45.8397 81.1246 44.8771C80.9645 43.9146 80.5144 43.0239 79.8343 42.3241C78.6183 40.9802 77.4931 39.5559 76.228 38.0288C69.7974 37.4367 63.208 36.775 56.6107 36.2416C54.643 36.1894 52.6969 36.6624 50.9727 37.612C51.8033 37.9367 52.2758 38.0767 52.7763 38.3214C53.1625 38.4591 53.5152 38.6768 53.8115 38.9602C54.1078 39.2436 54.3409 39.5864 54.4956 39.9661C54.6503 40.3458 54.7231 40.7539 54.7093 41.1636C54.6955 41.5734 54.5954 41.9757 54.4154 42.3441C53.9883 43.5083 53.1281 44.4626 52.0143 45.0079C51.2064 45.4489 50.3373 45.766 49.546 46.2165C48.9342 46.639 48.3501 47.1001 47.7972 47.5971C48.4024 47.7623 49.028 47.8404 49.6553 47.8289C51.2933 47.2918 52.9102 46.6761 54.5106 46.0508C55.4775 45.6795 56.3665 45.1747 57.3876 44.901C58.4087 44.6274 59.3614 44.7791 59.6204 45.3271C59.8795 45.875 59.4361 46.6813 59.1601 47.2745C58.4169 48.2837 57.8264 49.397 57.4075 50.5783C61.0705 47.4922 62.7805 43.6104 65.6065 40.0189C65.6713 40.9416 65.878 41.5036 65.71 41.8713C64.4282 44.7703 62.6782 47.4387 60.5302 49.7696C59.7095 50.5173 58.8152 51.18 57.8611 51.7476C57.5993 51.9215 57.2854 51.9995 56.9726 51.9682C56.6599 51.9369 56.3676 51.7983 56.1454 51.576C55.608 51.0886 55.7486 50.4616 56.0151 49.8851C56.2816 49.3086 56.523 49.0053 56.7722 48.5738C57.0214 48.1422 57.5597 47.8997 57.0804 47.1582L55.2526 48.1391C54.0338 48.884 52.7691 49.5509 51.466 50.1358C50.32 50.5335 49.1275 50.7822 47.9181 50.876C47.3077 50.8812 46.7116 50.6921 46.2159 50.3359C45.8098 50.0235 45.473 49.63 45.227 49.1806C44.9809 48.7311 44.831 48.2354 44.7865 47.725C44.7421 47.2145 44.8041 46.7004 44.9688 46.2152C45.1335 45.7299 45.3973 45.2842 45.7433 44.9063C46.6363 44.0842 47.6123 43.3572 48.6557 42.7368C49.2209 42.3328 49.8474 42.0527 50.8603 41.4866C50.0769 41.2335 49.7136 41.1344 49.3529 40.9926C48.9648 40.8672 48.5837 40.7211 48.2113 40.5548C46.1689 39.5306 45.8437 38.369 47.0269 36.3963L47.6785 35.2675L37.85 33.776C37.4905 33.822 37.1354 33.8984 36.7887 34.0042V34.0042ZM31.5454 32.6591C30.7909 33.9774 30.3553 35.4539 30.2734 36.9707C29.5232 40.6813 29.6284 44.514 30.5809 48.1779C31.5335 51.8417 33.3084 55.2404 35.7708 58.1157C40.1651 63.2442 45.6455 67.3306 51.8147 70.0788C56.636 72.3431 61.9502 73.3561 67.2664 73.0242C71.9913 72.8396 76.5491 71.2269 80.3387 68.399C82.7882 66.5696 85.0963 64.5582 87.2433 62.3817C92.1083 57.2867 96.4118 51.6836 100.079 45.6689C101.143 43.8264 102.084 41.8907 103.074 39.9837C103.151 39.8509 103.035 39.6292 103.009 39.2154C101.194 39.1415 99.377 39.2569 97.5866 39.5598C97.3248 40.0025 97.1068 40.4697 96.9361 40.9548C96.4212 42.8228 95.5769 44.5838 94.4428 46.1549C90.9633 51.322 86.7201 55.9314 81.858 59.8258C78.8493 62.2995 75.2455 63.9424 71.4049 64.5911C69.8014 64.8383 68.2139 65.2497 66.6079 65.5397C62.7811 66.2473 58.8485 66.1455 55.0633 65.2409C51.2782 64.3364 47.7245 62.649 44.6311 60.2876C41.8367 58.0363 39.5582 55.2114 37.9495 52.0037C34.5799 46.34 33.0205 40.4158 34.8042 33.8765C34.7871 33.7278 34.7526 33.5817 34.7015 33.441C33.7404 32.8976 32.649 32.6272 31.5454 32.6591V32.6591Z" fill="#FF7800"/>
<path d="M102.92 51.7129C99.238 57.8387 94.73 63.428 89.5228 68.3234C88.3569 69.4678 87.1282 70.5465 85.8425 71.5545C76.3425 79.0389 65.6237 79.9326 54.534 76.5621C45.2716 73.7568 37.0898 68.1835 31.0882 60.5911C28.0214 56.8766 25.9743 52.4277 25.148 47.6822C24.3217 42.9366 24.7447 38.0577 26.3756 33.5252C26.7102 32.2748 27.4665 31.1784 28.5165 30.4215C29.5665 29.6646 30.8457 29.2936 32.1378 29.3714C33.3559 29.3601 34.5738 29.4131 35.7863 29.5303C42.7092 30.0746 49.6295 30.6618 56.5453 31.1799C68.4184 32.133 80.3396 32.6195 92.3087 32.6396C95.6758 32.5349 99.0429 32.8438 102.335 33.5591C103.225 33.7655 104.09 34.0649 104.917 34.4526C105.526 34.8084 106.045 35.2976 106.437 35.8834C106.948 36.6475 107.346 37.4812 107.62 38.3587C107.819 39.0333 107.884 39.7402 107.812 40.4398C107.421 43.3819 106.408 46.2071 104.842 48.7283C104.25 49.7147 103.583 50.6793 102.92 51.7129ZM36.7887 34.0042C36.6192 34.681 36.3739 35.336 36.2638 36.025C35.9967 38.1572 36.0875 40.3191 36.5325 42.4213C37.4025 46.0978 38.9494 49.5802 41.0941 52.6905C43.2972 56.2681 46.4674 59.1495 50.2385 61.0021C53.952 62.9646 58.1403 63.8495 62.3303 63.5569C65.2604 63.1518 68.1581 62.5394 71.0016 61.7245C74.7989 60.8465 78.2785 58.9331 81.054 56.1968C86.04 51.4822 90.1259 45.899 93.1116 39.7206C89.1462 38.7812 85.0761 38.3579 81.0022 38.4614C80.7621 38.4555 80.5066 38.7064 80.2039 38.8857C80.8805 39.6305 81.5954 40.3088 82.1226 40.9673C83.1693 42.0998 83.8338 43.5324 84.0224 45.063C84.211 46.5935 83.914 48.1446 83.1735 49.4972C82.9861 49.9498 82.6923 50.3505 82.3171 50.6654C81.9419 50.9803 81.4963 51.2001 81.0181 51.3062C80.5399 51.4123 80.0432 51.4016 79.57 51.2749C79.0968 51.1483 78.6611 50.9095 78.2999 50.5787C77.6106 49.9747 76.9525 49.3362 76.328 48.6656C75.9871 48.336 75.6105 48.03 74.8502 47.3919C74.9118 48.5119 74.9824 49.1945 75.0199 49.858C75.0921 51.2907 74.7874 52.7173 74.1361 53.9954C74.0187 54.2521 73.8461 54.4797 73.6305 54.6619C73.415 54.8441 73.1618 54.9765 72.8892 55.0495C72.6165 55.1226 72.3311 55.1345 72.0534 55.0845C71.7756 55.0344 71.5122 54.9237 71.2822 54.7601C70.568 54.3608 69.959 53.7973 69.5056 53.1161C69.0523 52.4349 68.7675 51.6555 68.675 50.8425C68.64 50.7115 68.8571 50.5271 69.0584 50.1785L72.014 52.7259C72.2732 52.3492 72.4746 51.9358 72.6114 51.4995C72.6657 50.5933 72.6428 49.6842 72.5427 48.7819C72.4536 47.9779 72.2003 47.1899 72.1068 46.317C71.9585 45.9259 71.9525 45.4951 72.0897 45.1C72.227 44.7049 72.4988 44.3707 72.8577 44.1558C73.2165 43.9409 73.6395 43.8591 74.0526 43.9246C74.4657 43.9901 74.8426 44.1987 75.1174 44.5141C76.0226 45.1695 76.8346 45.9481 77.6753 46.677C78.3378 47.4469 79.1635 48.0596 80.0922 48.4707C80.3388 48.2478 80.5535 47.992 80.7304 47.7105C81.1472 46.8282 81.2848 45.8397 81.1246 44.8771C80.9645 43.9146 80.5144 43.0239 79.8343 42.3241C78.6183 40.9802 77.4931 39.5559 76.228 38.0288C69.7974 37.4367 63.208 36.775 56.6107 36.2416C54.643 36.1894 52.6969 36.6624 50.9727 37.612C51.8033 37.9367 52.2758 38.0767 52.7763 38.3214C53.1625 38.4591 53.5152 38.6768 53.8115 38.9602C54.1078 39.2436 54.3409 39.5864 54.4956 39.9661C54.6503 40.3458 54.7231 40.7539 54.7093 41.1636C54.6955 41.5734 54.5954 41.9757 54.4154 42.3441C53.9883 43.5083 53.1281 44.4626 52.0143 45.0079C51.2064 45.4489 50.3373 45.766 49.546 46.2165C48.9342 46.639 48.3501 47.1001 47.7972 47.5971C48.4024 47.7623 49.028 47.8404 49.6553 47.8289C51.2933 47.2918 52.9102 46.6761 54.5106 46.0508C55.4775 45.6795 56.3665 45.1747 57.3876 44.901C58.4087 44.6274 59.3614 44.7791 59.6204 45.3271C59.8795 45.875 59.4361 46.6813 59.1601 47.2745C58.4169 48.2837 57.8264 49.397 57.4075 50.5783C61.0705 47.4922 62.7805 43.6104 65.6065 40.0189C65.6713 40.9416 65.878 41.5036 65.71 41.8713C64.4282 44.7703 62.6782 47.4387 60.5302 49.7696C59.7095 50.5173 58.8152 51.18 57.8611 51.7476C57.5993 51.9215 57.2854 51.9995 56.9726 51.9682C56.6599 51.9369 56.3676 51.7983 56.1454 51.576C55.608 51.0886 55.7486 50.4616 56.0151 49.8851C56.2816 49.3086 56.523 49.0053 56.7722 48.5738C57.0214 48.1422 57.5597 47.8997 57.0804 47.1582L55.2526 48.1391C54.0338 48.884 52.7691 49.5509 51.466 50.1358C50.32 50.5335 49.1275 50.7822 47.9181 50.876C47.3077 50.8812 46.7116 50.6921 46.2159 50.3359C45.8098 50.0235 45.473 49.63 45.227 49.1806C44.9809 48.7311 44.831 48.2354 44.7865 47.725C44.7421 47.2145 44.8041 46.7004 44.9688 46.2152C45.1335 45.7299 45.3973 45.2842 45.7433 44.9063C46.6363 44.0842 47.6123 43.3572 48.6557 42.7368C49.2209 42.3328 49.8474 42.0527 50.8603 41.4866C50.0769 41.2335 49.7136 41.1344 49.3529 40.9926C48.9648 40.8672 48.5837 40.7211 48.2113 40.5548C46.1689 39.5306 45.8437 38.369 47.0269 36.3963L47.6785 35.2675L37.85 33.776C37.4905 33.822 37.1354 33.8984 36.7887 34.0042V34.0042ZM31.5454 32.6591C30.7909 33.9774 30.3553 35.4539 30.2734 36.9707C29.5232 40.6813 29.6284 44.514 30.5809 48.1779C31.5335 51.8417 33.3084 55.2404 35.7708 58.1157C40.1651 63.2442 45.6455 67.3306 51.8147 70.0788C56.636 72.3431 61.9502 73.3561 67.2664 73.0242C71.9913 72.8396 76.5491 71.2269 80.3387 68.399C82.7882 66.5696 85.0963 64.5582 87.2433 62.3817C92.1083 57.2867 96.4118 51.6836 100.079 45.6689C101.143 43.8264 102.084 41.8907 103.074 39.9837C103.151 39.8509 103.035 39.6292 103.009 39.2154C101.194 39.1415 99.377 39.2569 97.5866 39.5598C97.3248 40.0025 97.1068 40.4697 96.9361 40.9548C96.4212 42.8228 95.5769 44.5838 94.4428 46.1549C90.9633 51.322 86.7201 55.9314 81.858 59.8258C78.8493 62.2995 75.2455 63.9424 71.4049 64.5911C69.8014 64.8383 68.2139 65.2497 66.6079 65.5397C62.7811 66.2473 58.8485 66.1455 55.0633 65.2409C51.2782 64.3364 47.7245 62.649 44.6311 60.2876C41.8367 58.0363 39.5582 55.2114 37.9495 52.0037C34.5799 46.34 33.0205 40.4158 34.8042 33.8765C34.7871 33.7278 34.7526 33.5817 34.7015 33.441C33.7404 32.8976 32.649 32.6272 31.5454 32.6591V32.6591Z" fill="white" fill-opacity="0.4"/>
<path d="M65.2864 54.2207C65.0521 54.5514 64.7041 54.7841 64.309 54.8744C63.9139 54.9648 63.4994 54.9064 63.1446 54.7104C62.5956 54.3389 62.1847 53.7966 61.9756 53.1676C61.7664 52.5386 61.7708 51.8581 61.9881 51.2319C62.0564 51.0427 62.1622 50.8692 62.2991 50.7218C62.4361 50.5744 62.6014 50.4562 62.7851 50.3743C62.9688 50.2923 63.1672 50.2482 63.3683 50.2447C63.5695 50.2412 63.7693 50.2784 63.9557 50.3539C64.6305 50.7054 65.1447 51.3024 65.3922 52.0219C65.6398 52.7413 65.6019 53.5284 65.2864 54.2207Z" fill="#FF7800"/>
<path d="M65.2864 54.2207C65.0521 54.5514 64.7041 54.7841 64.309 54.8744C63.9139 54.9648 63.4994 54.9064 63.1446 54.7104C62.5956 54.3389 62.1847 53.7966 61.9756 53.1676C61.7664 52.5386 61.7708 51.8581 61.9881 51.2319C62.0564 51.0427 62.1622 50.8692 62.2991 50.7218C62.4361 50.5744 62.6014 50.4562 62.7851 50.3743C62.9688 50.2923 63.1672 50.2482 63.3683 50.2447C63.5695 50.2412 63.7693 50.2784 63.9557 50.3539C64.6305 50.7054 65.1447 51.3024 65.3922 52.0219C65.6398 52.7413 65.6019 53.5284 65.2864 54.2207Z" fill="white" fill-opacity="0.4"/>
<path d="M88.3346 43.0498C88.1857 43.3635 87.9296 43.6136 87.6125 43.7552C87.2954 43.8967 86.9382 43.9204 86.6052 43.8218C86.2973 43.65 86.0694 43.3638 85.9708 43.0253C85.8722 42.6867 85.9108 42.323 86.0784 42.0127C86.1947 41.7321 86.4141 41.5067 86.6914 41.3828C86.9687 41.2589 87.283 41.246 87.5696 41.3465C87.7364 41.4015 87.8899 41.4907 88.0204 41.6083C88.1509 41.7259 88.2554 41.8693 88.3274 42.0296C88.3993 42.1898 88.4372 42.3633 88.4384 42.5389C88.4397 42.7145 88.4043 42.8885 88.3346 43.0498Z" fill="#FF7800"/>
<path d="M88.3346 43.0498C88.1857 43.3635 87.9296 43.6136 87.6125 43.7552C87.2954 43.8967 86.9382 43.9204 86.6052 43.8218C86.2973 43.65 86.0694 43.3638 85.9708 43.0253C85.8722 42.6867 85.9108 42.323 86.0784 42.0127C86.1947 41.7321 86.4141 41.5067 86.6914 41.3828C86.9687 41.2589 87.283 41.246 87.5696 41.3465C87.7364 41.4015 87.8899 41.4907 88.0204 41.6083C88.1509 41.7259 88.2554 41.8693 88.3274 42.0296C88.3993 42.1898 88.4372 42.3633 88.4384 42.5389C88.4397 42.7145 88.4043 42.8885 88.3346 43.0498Z" fill="white" fill-opacity="0.4"/>
</g>
<defs>
<filter id="filter0_ddd_6060_8476" x="-10" y="-8" width="145.093" height="140.441" filterUnits="userSpaceOnUse" color-interpolation-filters="sRGB">
<feFlood flood-opacity="0" result="BackgroundImageFix"/>
<feColorMatrix in="SourceAlpha" type="matrix" values="0 0 0 0 0 0 0 0 0 0 0 0 0 0 0 0 0 0 127 0" result="hardAlpha"/>
<feOffset/>
<feGaussianBlur stdDeviation="0.5"/>
<feColorMatrix type="matrix" values="0 0 0 0 0 0 0 0 0 0 0 0 0 0 0 0 0 0 0.04 0"/>
<feBlend mode="normal" in2="BackgroundImageFix" result="effect1_dropShadow_6060_8476"/>
<feColorMatrix in="SourceAlpha" type="matrix" values="0 0 0 0 0 0 0 0 0 0 0 0 0 0 0 0 0 0 127 0" result="hardAlpha"/>
<feOffset dy="2"/>
<feGaussianBlur stdDeviation="3"/>
<feColorMatrix type="matrix" values="0 0 0 0 0 0 0 0 0 0 0 0 0 0 0 0 0 0 0.04 0"/>
<feBlend mode="normal" in2="effect1_dropShadow_6060_8476" result="effect2_dropShadow_6060_8476"/>
<feColorMatrix in="SourceAlpha" type="matrix" values="0 0 0 0 0 0 0 0 0 0 0 0 0 0 0 0 0 0 127 0" result="hardAlpha"/>
<feOffset dy="16"/>
<feGaussianBlur stdDeviation="12"/>
<feColorMatrix type="matrix" values="0 0 0 0 0 0 0 0 0 0 0 0 0 0 0 0 0 0 0.06 0"/>
<feBlend mode="normal" in2="effect2_dropShadow_6060_8476" result="effect3_dropShadow_6060_8476"/>
<feBlend mode="normal" in="SourceGraphic" in2="effect3_dropShadow_6060_8476" result="shape"/>
</filter>
<clipPath id="clip0_6060_8476">
<rect width="75.728" height="63.0204" fill="white" transform="translate(45.5103) rotate(30)"/>
</clipPath>
</defs>
</svg>
