<svg width="186" height="48" viewBox="0 0 186 48" fill="none" xmlns="http://www.w3.org/2000/svg">
<path d="M38.964 6.11161C38.5153 6.11161 36.631 6.35696 36.3955 6.39042L36.7207 6.72498C37.5036 7.44824 38.5347 7.84713 39.6033 7.84022C40.4371 7.84662 41.2694 7.91374 42.0933 8.04099C41.8512 7.42653 41.4155 6.9065 40.8514 6.55872C40.2873 6.21094 39.6252 6.05409 38.964 6.11161" fill="#FF7800"/>
<path d="M41.1626 11.554C41.5513 12.6971 42.3082 13.681 43.3161 14.3532C43.9135 14.6948 44.555 14.9537 45.2228 15.1227C45.8477 15.3009 46.431 15.6003 46.9389 16.0038C46.8758 15.1292 46.5548 14.2926 46.0162 13.5984C45.4776 12.9041 44.7453 12.3831 43.9106 12.1004C42.7329 11.7324 41.8019 11.7324 41.1626 11.554" fill="#FF7800"/>
<path d="M21.7925 2.27513C22.5799 2.306 23.3594 2.10837 24.0357 1.70634C24.3498 1.4833 24.9106 0.892246 25.4154 0.446149L25.8304 0.0446443C25.5367 -0.000232992 25.2379 -0.000232992 24.9442 0.0446443C24.549 0.0663499 24.1646 0.181003 23.8226 0.379203C23.4184 0.666193 23.0428 0.991132 22.701 1.34949C22.4543 1.59485 21.9271 2.16359 21.7477 2.29742" fill="#FF7800"/>
<path d="M26.9517 1.96305C27.7929 1.59502 28.2864 0.847802 29.1949 0.557839C28.719 0.312514 28.1761 0.226463 27.6471 0.312484C26.6466 0.688661 25.7507 1.29657 25.0337 2.08575C25.6802 2.29137 26.3809 2.24756 26.9965 1.96305" fill="#FF7800"/>
<path d="M30.6532 2.29755C31.3343 1.95257 32.0531 1.68688 32.7955 1.50574C32.359 1.1985 31.8385 1.03119 31.3038 1.02619C30.0139 0.914669 29.0606 1.84033 28.0175 2.39795C28.4409 2.55861 28.8927 2.63251 29.3456 2.61526C29.7985 2.59801 30.2433 2.48994 30.6532 2.29755" fill="#FF7800"/>
<path d="M31.001 3.10043C31.738 3.51364 32.579 3.70722 33.4236 3.65805C34.1829 3.47971 34.9318 3.26005 35.6669 3.00006C35.2999 2.62367 34.8267 2.36698 34.3098 2.264C33.9975 2.19184 33.6757 2.16926 33.3564 2.19708C32.8976 2.25852 32.4511 2.3902 32.0329 2.58742C31.6515 2.73241 31.3038 2.93314 30.9113 3.10043" fill="#FF7800"/>
<path d="M36.1494 5.39776C36.7098 5.46554 37.2773 5.44675 37.8318 5.34201C38.3016 5.24759 38.7776 5.18794 39.2562 5.16357C39.1441 5.02974 38.9646 4.829 38.7852 4.65056C38.3587 4.27476 37.8485 4.00502 37.2967 3.86348C36.7449 3.72195 36.1671 3.71266 35.611 3.83643C34.9671 4.0537 34.3119 4.23615 33.6482 4.38292C34.3966 4.90014 35.2507 5.24665 36.1494 5.39776Z" fill="#FF7800"/>
<path d="M36.7659 37.3381C35.6482 38.0315 34.6518 38.9017 33.8161 39.9143C32.4926 41.9664 31.9206 44.2303 30.3727 46.1039C30.1036 46.4162 29.1053 47.4199 28.8698 47.4199C33.8385 47.2749 36.6314 45.4236 37.4838 42.3344C38.031 40.3564 38.1645 38.2878 37.8763 36.2563C37.5472 36.6701 37.1708 37.0443 36.7547 37.3716" fill="#FF7800"/>
<path d="M42.172 31.1599C41.0504 32.6878 39.5137 34.6729 39.3904 36.29C39.0651 38.8997 39.525 40.751 38.1678 43.4164C39.9591 42.6605 41.407 41.2745 42.2348 39.5234C43.0625 37.7724 43.2119 35.7794 42.6543 33.9257C42.4524 33.067 42.2617 32.0075 42.1159 31.1599" fill="#FF7800"/>
<path d="M44.2361 25.8401C43.2649 27.3856 42.8681 29.2201 43.1145 31.026C43.2788 31.8913 43.4884 32.7475 43.7426 33.591C43.9649 34.4028 44.0929 35.2372 44.1239 36.078C44.1331 36.5764 44.0841 37.0741 43.9781 37.5613C46.9953 35.3308 47.0513 31.3828 45.3914 28.0706C45.0324 27.368 44.7072 26.5873 44.2698 25.8401" fill="#FF7800"/>
<path d="M46.5799 16.985C45.133 15.8698 43.5515 15.7694 43.0355 15.3345C43.2118 16.6751 43.7858 17.9331 44.6843 18.9479C45.1881 19.4508 45.7279 19.9167 46.2994 20.3419C46.943 20.8083 47.5368 21.3389 48.0716 21.9256C48.296 21.0449 48.2757 20.1202 48.0129 19.2501C47.7502 18.38 47.2549 17.5972 46.5799 16.985Z" fill="#FF7800"/>
<path d="M24.4732 41.4982C22.6162 40.7835 20.5813 40.6626 18.652 41.1525C18.1046 41.2514 17.5677 41.4008 17.0481 41.5986C16.162 41.9332 15.3433 42.5019 14.4909 42.9146C13.6316 43.3179 12.7168 43.5922 11.7765 43.7287C11.3227 43.7846 10.8654 43.807 10.4082 43.7956C11.4003 44.8934 12.665 45.7125 14.0758 46.1711C14.955 46.4841 15.8914 46.6062 16.8219 46.5292C17.7525 46.4523 18.6558 46.178 19.4708 45.725C20.671 44.9666 23.0712 42.1674 24.4732 41.4982Z" fill="#FF7800"/>
<path d="M29.6215 44.6097C30.3617 43.7064 31.8647 40.7398 32.818 39.6023C30.2796 39.8748 27.8405 40.7342 25.6958 42.1116C23.2732 43.7845 21.9496 46.4499 18.6633 47.2529C20.6255 47.9828 22.7512 48.164 24.8097 47.777C26.6951 47.2214 28.3707 46.1185 29.6215 44.6097" fill="#FF7800"/>
<path d="M16.8577 3.30121C17.3211 2.94651 17.7034 2.49792 17.9793 1.9852C18.2487 1.46439 18.5801 0.977646 18.9663 0.5354C18.4212 0.563802 17.8873 0.700291 17.396 0.936871C17.1212 1.12278 16.8723 1.34406 16.6558 1.59489C16.3297 1.97987 16.0406 2.39429 15.7921 2.8328C15.6014 3.16737 15.2089 3.94804 15.2089 3.94804C15.7797 3.82885 16.3235 3.60577 16.8128 3.29005" fill="#FF7800"/>
<path d="M48.1615 24.7025C47.7128 22.394 45.5257 21.011 44.4377 20.0408C44.3573 21.1562 44.3874 22.2769 44.5275 23.3865C44.8338 24.613 45.3174 25.7888 45.9632 26.8772C46.2656 27.4381 46.5279 28.0195 46.7482 28.617C46.8564 28.9237 46.9464 29.2365 47.0175 29.5538C47.0915 29.8763 47.1366 30.2047 47.1521 30.5352C48.1336 28.7574 48.4888 26.7043 48.1615 24.7025" fill="#FF7800"/>
<path d="M12.9094 42.2789C14.2926 41.5005 15.7754 40.9115 17.3173 40.528C15.6228 39.1567 13.5745 38.2871 11.4064 38.0187C10.2848 37.9072 8.18742 38.3198 6.84149 38.2975C6.08098 38.3126 5.32314 38.2034 4.59827 37.9741C5.21559 39.095 5.96896 40.1362 6.84149 41.0745C7.60468 41.8544 8.58712 42.3867 9.65996 42.6017C10.7328 42.8166 11.8459 42.7041 12.8533 42.2789" fill="#FF7800"/>
<path d="M14.4349 3.49086C14.7756 2.82363 15.1774 2.18901 15.635 1.59497C14.9043 1.72188 14.2131 2.01584 13.6161 2.45369C12.8989 3.08079 12.433 3.94394 12.3039 4.88491C12.2209 5.26475 12.1084 5.63762 11.9674 6.00015C12.3856 5.83427 12.7668 5.58793 13.089 5.27525C13.659 4.77252 14.1173 4.15722 14.4349 3.46857" fill="#FF7800"/>
<path d="M8.22139 7.71757C8.16969 7.09629 8.19228 6.47109 8.28868 5.8551C7.83867 6.07447 7.45257 6.40465 7.16707 6.81423C6.78151 7.30291 6.51992 7.87669 6.40438 8.48709C6.22811 9.49764 6.34078 10.5371 6.72963 11.4871C7.2598 11.0204 7.67137 10.4356 7.93065 9.7804C8.18992 9.12524 8.28954 8.41836 8.22139 7.71757" fill="#FF7800"/>
<path d="M5.17007 14.7324C5.5465 14.1474 5.78358 13.4846 5.86327 12.7946C5.94297 12.1046 5.86315 11.4056 5.6299 10.751C5.43929 10.1501 5.32254 9.52845 5.2822 8.89966C4.89517 9.23886 4.59847 9.66794 4.41854 10.1487C4.15935 10.7263 4.04394 11.3575 4.08207 11.9889C4.25228 12.9732 4.63493 13.9092 5.20368 14.7324" fill="#FF7800"/>
<path d="M2.61287 25.4721C3.3746 25.8494 4.06217 26.3593 4.64298 26.9777C4.56195 26.0264 4.35842 25.0894 4.03734 24.1896C3.30829 22.8736 2.09692 22.4276 1.19963 21.6692C0.792091 21.267 0.44462 20.8088 0.167773 20.3086C0.0614981 20.976 0.0164539 21.6517 0.0331851 22.3272C0.122914 23.8551 0.896811 24.6469 2.61287 25.4721Z" fill="#FF7800"/>
<path d="M4.08289 18.3792C4.45284 17.6093 4.59296 16.7501 4.48665 15.9034C4.38949 15.4222 4.23515 14.9543 4.02682 14.5093C3.61763 13.7423 3.31216 12.9248 3.11832 12.0781C2.84611 12.4413 2.62355 12.8388 2.45654 13.2603C2.23162 13.8462 2.15459 14.478 2.23221 15.1004C2.3668 16.2714 3.47722 17.2528 4.08289 18.3792" fill="#FF7800"/>
<path d="M2.36635 30.7252C3.27485 31.1936 4.46373 31.4835 5.6302 31.9519L6.58354 32.3869C6.5678 31.477 6.30842 30.5877 5.83208 29.8107C5.39849 28.9306 4.76027 28.166 3.97024 27.5802C3.47566 27.2368 2.96271 26.9203 2.43364 26.6322C1.55158 26.2127 0.735456 25.668 0.0109241 25.0151C-0.0374354 26.1487 0.118337 27.2818 0.470822 28.3609C0.612235 28.855 0.853172 29.3155 1.17902 29.7142C1.50486 30.113 1.90882 30.4418 2.36635 30.6805" fill="#FF7800"/>
<path d="M11.1041 37.0038C10.5254 36.1911 9.85977 35.4432 9.11881 34.7734C8.26539 34.0721 7.26527 33.5691 6.19143 33.3012C5.84373 33.1786 5.06985 32.9444 4.67728 32.8551C3.53147 32.602 2.436 32.1611 1.43581 31.5503C1.42764 32.0228 1.4766 32.4946 1.58163 32.9555C1.69568 33.3981 1.84568 33.8308 2.03023 34.2492C2.13915 34.4843 2.27065 34.7083 2.42284 34.9183C2.96215 35.6557 3.66931 36.2557 4.48656 36.6692C5.28099 36.9802 6.13749 37.1024 6.9878 37.0261C7.91873 37.0261 9.96004 36.8365 11.1041 37.0261" fill="#FF7800"/>
<path d="M1.49155 20.2306C2.18715 21.0197 3.01428 21.6837 3.93665 22.1935C3.94787 22.0078 3.94787 21.8216 3.93665 21.6359C3.93665 21.4463 3.93665 21.2678 3.93665 21.0894C3.89857 20.7423 3.83104 20.3991 3.73477 20.0634C3.54556 19.4268 3.24153 18.8297 2.83749 18.3013C2.61317 17.9778 2.33275 17.6879 2.11965 17.3756C1.90106 17.0674 1.71324 16.7387 1.55884 16.3942C1.55884 16.305 1.41304 16.0485 1.35696 15.8923C1.32032 16.047 1.2754 16.1997 1.22237 16.3496C1.10274 16.7529 1.00538 17.1625 0.930743 17.5764C0.837421 18.2766 0.934236 18.989 1.21115 19.6396C1.3012 19.8482 1.41402 20.0465 1.54761 20.2306" fill="#FF7800"/>
<path d="M10.1838 7.43878C10.5574 6.99787 10.836 6.48544 11.0026 5.93319C11.1911 5.05412 11.4422 4.18948 11.7541 3.34583C11.0903 3.58919 10.4971 3.99139 10.0268 4.51685C9.67825 4.9333 9.42562 5.42053 9.28654 5.94436C9.10625 6.7495 9.02337 7.57317 9.03975 8.39787C9.47316 8.15426 9.85424 7.82841 10.1614 7.43878" fill="#FF7800"/>
<path d="M20.3009 2.3195C20.7714 1.93906 21.2137 1.52532 21.6244 1.08157C21.8151 0.880825 22.5778 0.111329 22.6899 0.0221096C22.0521 -0.0115991 21.4165 0.120876 20.846 0.406461C20.2755 0.692046 19.7899 1.12083 19.4372 1.65035C19.1498 2.03628 18.8912 2.44256 18.6633 2.86596C19.2627 2.84297 19.8412 2.64088 20.3233 2.28605" fill="#FF7800"/>
<path d="M33.0309 21.8252V26.0074C34.6401 25.3317 36.056 24.2701 37.152 22.9176C38.2481 21.5651 38.9901 19.9637 39.3119 18.2565C39.663 16.3078 39.3096 14.2983 38.314 12.5838C37.3185 10.8693 35.745 9.56031 33.8721 8.88843C36.4967 11.1747 38.0333 13.2825 36.9453 17.1412C36.6372 18.1408 36.1325 19.0695 35.4605 19.8736C34.7886 20.6777 33.9627 21.341 33.0309 21.8252Z" fill="#FF7800"/>
<path d="M14.3678 8.89966C12.4936 9.56965 10.9188 10.8783 9.92294 12.5933C8.92707 14.3083 8.57457 16.3188 8.92805 18.2677C9.25075 19.9748 9.99455 21.5755 11.0927 22.9264C12.1909 24.2772 13.6092 25.3359 15.2203 26.0075V21.8253C14.2856 21.3433 13.457 20.6807 12.783 19.8765C12.1089 19.0722 11.6029 18.1424 11.2946 17.1413C10.173 13.2826 11.7433 11.1748 14.3678 8.89966Z" fill="#FF7800"/>
<path d="M26.6939 17.8552C26.8958 17.4648 26.6939 17.1525 26.4135 17.1079C26.1331 17.0633 25.8415 17.2976 25.9088 17.7325C25.9553 17.9728 26.0592 18.1984 26.2116 18.3905C26.4135 18.2534 26.579 18.0697 26.6939 17.8552Z" fill="#FF7800"/>
<path d="M28.8138 18.3793C29.0718 18.0224 28.926 17.6767 28.6456 17.5986C28.3652 17.5206 28.0624 17.699 28.0624 18.134C28.0672 18.3766 28.1327 18.6142 28.253 18.8254C28.4744 18.7255 28.6672 18.5722 28.8138 18.3793Z" fill="#FF7800"/>
<path d="M30.777 18.4797C30.5303 18.357 30.1826 18.4797 30.1153 18.9258C30.0872 19.1674 30.118 19.4122 30.205 19.6395C30.4394 19.5708 30.6545 19.4486 30.8331 19.2826C31.1359 18.9592 31.035 18.6023 30.8331 18.4797" fill="#FF7800"/>
<path d="M24.1258 18.223C24.3038 18.0613 24.4387 17.8582 24.5184 17.632C24.6418 17.2082 24.4062 16.9294 24.1258 16.9405C23.8454 16.9517 23.5875 17.2082 23.722 17.632C23.8081 17.8577 23.9464 18.0602 24.1258 18.223" fill="#FF7800"/>
<path d="M22.0277 18.3792C22.1801 18.1872 22.284 17.9615 22.3305 17.7212C22.3978 17.2863 22.1062 17.0521 21.8258 17.0967C21.5454 17.1413 21.3547 17.4536 21.5454 17.8439C21.6603 18.0584 21.8258 18.2421 22.0277 18.3792" fill="#FF7800"/>
<path d="M19.9865 18.8587C20.1068 18.6475 20.1723 18.4099 20.1772 18.1672C20.1772 17.7323 19.8632 17.5427 19.594 17.6319C19.3248 17.7211 19.1677 18.0557 19.4257 18.4126C19.5723 18.6055 19.7651 18.7588 19.9865 18.8587" fill="#FF7800"/>
<path d="M18.125 18.937C18.0577 18.502 17.7212 18.3571 17.4632 18.4909C17.2053 18.6247 17.1155 18.9704 17.4632 19.2827C17.4677 19.3523 17.4894 19.4196 17.5264 19.4789C17.5634 19.5381 17.6144 19.5873 17.6751 19.6222C17.7358 19.6571 17.8042 19.6766 17.8742 19.6789C17.9443 19.6813 18.0138 19.6664 18.0767 19.6356C18.1396 19.6048 18.1939 19.5592 18.2348 19.5025C18.2757 19.4459 18.3019 19.3802 18.3111 19.3111C18.3203 19.242 18.3122 19.1717 18.2876 19.1064C18.263 19.0412 18.2225 18.983 18.1698 18.937" fill="#FF7800"/>
<path d="M16.3306 21.7249C16.2648 21.7903 16.2048 21.8612 16.1512 21.9368C16.1017 22.0175 16.0746 22.1099 16.0726 22.2044V29.8104C16.0778 30.0204 16.1195 30.2279 16.196 30.4237C16.2583 30.6215 16.3489 30.8093 16.4652 30.9814C16.4652 30.9814 17.3849 32.1858 18.4504 33.4349C18.9614 34.0464 19.5043 34.6308 20.0768 35.1858C20.3046 35.4178 20.5482 35.6339 20.8058 35.8327C21 35.9858 21.2204 36.1029 21.4563 36.1784C23.2193 36.5204 25.0322 36.5204 26.7952 36.1784C27.0312 36.1029 27.2516 35.9858 27.4458 35.8327C28.4514 34.9664 29.3716 34.0066 30.1937 32.9665C31.0798 31.907 31.7752 30.9814 31.7864 30.9814C31.9027 30.8093 31.9933 30.6215 32.0556 30.4237C32.1244 30.2224 32.1622 30.0118 32.1677 29.7992V22.1933C32.1672 22.102 32.14 22.0128 32.0892 21.9368C31.9892 21.783 31.8595 21.6504 31.7079 21.5464C30.7939 20.9433 29.7858 20.4949 28.7244 20.2193C25.4388 19.2096 21.9098 19.3076 18.686 20.4981C18.0553 20.7151 17.4469 20.9914 16.869 21.3234C16.6739 21.4352 16.4931 21.5699 16.3306 21.7249ZM18.4392 32.6542L17.3176 31.2713C17.026 30.9144 16.8578 30.6802 16.8578 30.6802C16.6827 30.4228 16.5854 30.121 16.5774 29.8104V27.2119C16.5774 27.0334 16.768 26.9777 16.9138 27.0669L17.1157 27.2453L21.1199 30.9814C21.376 31.2368 21.5244 31.5799 21.5349 31.9405V34.8067C21.5349 35.3197 21.4227 35.5315 21.2208 35.5092L21.0974 35.4312C20.1238 34.5889 19.2303 33.6593 18.428 32.6542H18.4392ZM31.5621 30.2676C31.5176 30.4151 31.4494 30.5544 31.3602 30.6802L31.2031 30.881C30.8554 31.3494 29.9469 32.4981 28.9599 33.5687C28.4888 34.104 28.0066 34.6171 27.5916 35.0074C27.4079 35.1763 27.213 35.3328 27.0083 35.4758V35.4758C26.8064 35.4758 26.6942 35.2974 26.6942 34.8067V31.907C26.7141 31.5464 26.8657 31.2053 27.1205 30.9479L31.3153 27.0223C31.347 27.001 31.3836 26.9882 31.4217 26.985C31.4598 26.9818 31.4981 26.9884 31.5329 27.004C31.5677 27.0197 31.598 27.0439 31.6207 27.0744C31.6435 27.1049 31.6581 27.1407 31.663 27.1784V29.7657C31.6564 29.9254 31.6261 30.0832 31.5733 30.2342L31.5621 30.2676ZM24.1258 19.9962C25.9225 20.022 27.7029 20.3384 29.3974 20.933C29.8616 21.0977 30.3149 21.2914 30.7545 21.513C31.2256 21.8141 31.4275 22.171 31.0349 22.6282L24.5408 28.6728C24.4285 28.7772 24.2794 28.8333 24.1258 28.8289C23.9687 28.8338 23.8159 28.7779 23.6996 28.6728L17.1942 22.5725C16.8017 22.1487 16.9924 21.8029 17.4746 21.4572L17.7775 21.3122C19.7707 20.433 21.9229 19.9663 24.1033 19.9405" fill="#FF7800"/>
<path d="M39.2334 8.63227C39.5659 9.2905 40.0727 9.84606 40.6992 10.2391C41.3257 10.6321 42.0482 10.8478 42.7889 10.8627C43.4276 10.8738 44.0572 11.0142 44.6395 11.2754C44.4325 10.6202 44.0438 10.0365 43.5179 9.59136C42.7101 9.00114 41.7385 8.67391 40.7363 8.65456C40.0185 8.65456 39.7044 8.65456 39.2558 8.58765" fill="#FF7800"/>
<path d="M125.216 16.5615H120.719V31.4389H125.216V16.5615Z" fill="#FF7800"/>
<path d="M118.509 31.4389V16.5615H113.989V21.9816H109.188V16.5615H104.646V31.4389H109.188V25.8403H113.989V31.4389H118.509Z" fill="#FF7800"/>
<path d="M150.273 16.0039C148.681 16.0106 147.127 16.4861 145.807 17.3705C144.487 18.2548 143.46 19.5084 142.856 20.9728C142.252 22.4372 142.098 24.0467 142.413 25.5981C142.729 27.1494 143.5 28.5731 144.628 29.6891C145.757 30.8052 147.193 31.5637 148.755 31.8687C150.317 32.1737 151.935 32.0115 153.404 31.4028C154.873 30.7941 156.128 29.766 157.011 28.4484C157.893 27.1309 158.362 25.583 158.36 24.0002C158.357 22.9472 158.146 21.9051 157.738 20.9334C157.33 19.9616 156.733 19.0793 155.982 18.3368C155.231 17.5942 154.341 17.006 153.361 16.6058C152.381 16.2055 151.332 16.001 150.273 16.0039V16.0039ZM150.273 28.4054C148.31 28.4054 146.718 26.4314 146.718 23.9445C146.718 21.4575 148.31 19.4835 150.273 19.4835C152.236 19.4835 153.829 21.4686 153.829 23.9445C153.829 26.4203 152.236 28.4054 150.273 28.4054Z" fill="#FF7800"/>
<path d="M134.503 16.5615H127.414V31.4388H131.901V20.4537H133.269C133.717 20.3917 134.173 20.4321 134.602 20.5717C135.032 20.7114 135.424 20.9466 135.749 21.2595C136.073 21.5725 136.321 21.9548 136.475 22.3775C136.628 22.8003 136.683 23.2522 136.634 23.6991C136.585 26.324 136.15 28.9277 135.344 31.4277H140.066C140.942 28.9778 141.353 26.3874 141.278 23.7883C141.278 17.7771 137.217 16.5727 134.548 16.5727" fill="#FF7800"/>
<path d="M181.566 31.4168H185.705C185.512 26.0194 183.586 20.8252 180.209 16.5952H176.216C172.844 20.828 170.918 26.0205 170.72 31.4168H174.87C174.937 30.7142 175.027 30.0339 175.15 29.3647H181.285C181.409 30.0339 181.499 30.7142 181.566 31.4168V31.4168ZM175.958 26.0301C176.468 24.3287 177.224 22.7097 178.201 21.2235C179.187 22.7048 179.943 24.3251 180.444 26.0301H175.958Z" fill="#FF7800"/>
<path d="M97.0974 20.9448C97.0974 19.8295 99.7556 19.7626 100.967 19.7626C101.517 19.7626 102.806 19.8853 102.806 19.8853V16.4727C102.29 16.4169 101.203 16.3389 100.193 16.3389C93.3176 16.3389 91.882 18.7143 91.882 20.666C91.882 22.3388 93.284 23.666 95.101 24.6251C96.918 25.5842 98.2639 26.2757 98.2639 26.8556C98.2639 27.4355 96.9067 28.0377 94.2036 28.0377C93.4297 28.0377 92.1062 27.9039 92.1062 27.9039V31.4727C92.8016 31.5507 93.755 31.6177 94.4167 31.6177C95.9833 31.6767 97.5504 31.5153 99.0715 31.1381C101.965 30.3128 103.412 28.9076 103.412 26.9671C103.357 26.2122 103.102 25.4852 102.672 24.8602C102.243 24.2353 101.654 23.7347 100.967 23.4095C98.7238 22.0712 97.0974 21.8816 97.0974 20.9002" fill="#FF7800"/>
<path d="M83.3688 16.004C81.7775 16.0128 80.2245 16.4902 78.9058 17.3759C77.5872 18.2616 76.5619 19.5159 75.9596 20.9805C75.3573 22.445 75.2049 24.0542 75.5216 25.6049C75.8383 27.1555 76.6099 28.5781 77.739 29.6931C78.8682 30.808 80.3042 31.5653 81.8659 31.8695C83.4275 32.1736 85.0448 32.0108 86.5135 31.4018C87.9822 30.7927 89.2365 29.7646 90.1181 28.4473C90.9997 27.13 91.469 25.5826 91.4668 24.0003C91.4638 22.9463 91.252 21.9033 90.8433 20.9308C90.4346 19.9583 89.8371 19.0755 89.085 18.3328C88.3329 17.5901 87.4409 17.0022 86.4601 16.6026C85.4792 16.203 84.4288 15.9996 83.3688 16.004V16.004ZM83.3688 28.4166C81.406 28.4166 79.8133 26.4426 79.8133 23.9557C79.8133 21.4687 81.406 19.4947 83.3688 19.4947C85.3316 19.4947 86.9243 21.4798 86.9243 23.9557C86.9243 26.4315 85.3316 28.4166 83.3688 28.4166Z" fill="#FF7800"/>
<path d="M71.1209 16.3831C71.0501 18.6118 70.3163 20.7697 69.0123 22.5838C67.0035 21.0352 65.5933 18.8452 65.0193 16.3831H60.3534C61.1346 19.9938 63.1088 23.2406 65.9614 25.6061C64.5459 26.65 62.8784 27.3039 61.1273 27.502V31.6284C67.3747 31.2381 74.867 25.7734 75.7082 16.3831H71.1209Z" fill="#FF7800"/>
<path d="M168.399 16.3831C168.324 18.6129 167.586 20.7707 166.279 22.5838C164.277 21.0309 162.871 18.8422 162.297 16.3831H157.631C158.412 19.9938 160.387 23.2406 163.239 25.6061C161.824 26.65 160.156 27.3039 158.405 27.502V31.6284C164.652 31.2381 172.145 25.7734 172.986 16.3831H168.399Z" fill="#FF7800"/>
</svg>
